<svg width="101" height="31" viewBox="0 0 101 31" fill="none" xmlns="http://www.w3.org/2000/svg">
<path d="M1.11633 1.38086L1.27715 21.0226C2.41313 20.8658 4.06036 20.5481 5.20888 20.2582C1.32752 14.1096 2.10646 8.32256 5.35086 5.14227C8.59981 1.95739 14.2184 1.51527 19.4697 5.58687C19.7625 4.99018 20.0998 4.20458 20.4856 3.40718C20.8167 2.72349 21.1918 2.03701 21.6304 1.42427L1.11633 1.38086ZM11.6949 3.73837C11.5183 3.73819 11.3439 3.7431 11.1708 3.75351L16.8092 7.09872L17.6248 5.64935C15.5668 4.32459 13.5389 3.74001 11.6949 3.73837ZM8.78108 4.2644C7.78327 4.645 6.89057 5.21983 6.14366 5.95209C4.94623 7.12585 4.10505 8.72162 3.81261 10.6142C6.55574 11.0782 8.5992 12.9741 8.80772 15.5167C9.09108 18.9748 13.088 21.6991 16.1111 21.3651C20.1278 20.9209 21.642 22.9215 22.2831 25.9629C22.9806 29.2727 26.0576 30.7588 29.9423 29.9287C26.9049 28.9866 24.3037 27.3995 24.3323 23.7018C24.3609 20.004 22.2216 17.8996 19.3505 17.7208C15.7445 17.4965 14.6142 15.1494 14.4311 11.9991C14.3009 9.76097 11.9019 6.21292 8.7812 4.26428L8.78108 4.2644ZM3.69902 12.1355C3.7029 14.0976 4.26332 16.3044 5.55515 18.6443L6.90613 17.842L3.69902 12.1355Z" fill="white"/>
<path d="M41.5063 7V21.8958H49.3438V23.5H39.8333V7H41.5063ZM51.5208 7.04583H53.1938V8.925H51.5208V7.04583ZM51.5208 11.125H53.1938V23.5H51.5208V11.125ZM66.6788 21.9187V23.5H56.6413V21.9417L64.4329 12.7062H56.6413V11.125H66.6788V12.7062L58.8871 21.9187H66.6788ZM70.218 21.5521H72.1659V23.5H70.218V21.5521ZM86.0104 14.1958L84.3604 14.7458C84.1083 14.0583 83.5813 13.3937 82.9625 13.0042C82.3438 12.5687 81.6104 12.3854 80.8313 12.3854C79.5938 12.3854 78.4708 12.8667 77.7604 13.8292C77.0271 14.7687 76.8208 16.0521 76.7979 17.3125C76.8208 18.5729 77.0271 19.8562 77.7604 20.7958C78.4708 21.7354 79.5938 22.2396 80.8313 22.2396C81.6104 22.2396 82.3667 22.0562 83.0083 21.6208C83.6271 21.2312 84.0396 20.6583 84.3375 19.9708L86.0104 20.4521C85.5979 21.4604 84.9333 22.3771 84.0625 22.95C83.1229 23.5688 82.1146 23.8438 80.8313 23.8438C78.975 23.8438 77.4625 23.2021 76.4083 21.8271C75.3542 20.4979 75.0333 18.8937 75.0104 17.3125C75.0333 15.6854 75.3771 14.0812 76.4083 12.775C77.4854 11.4229 78.975 10.7812 80.8542 10.7812C82.0229 10.7812 82.9854 11.0104 83.925 11.5833C84.8646 12.1792 85.6667 13.0958 86.0104 14.1958ZM93.2306 23.8438C91.4431 23.8438 89.816 23.1792 88.7618 21.8271C87.7077 20.5208 87.3639 18.9167 87.3639 17.2896C87.3639 15.6854 87.7306 14.0583 88.7618 12.775C89.7702 11.4917 91.4431 10.7812 93.2306 10.7812C94.9723 10.7812 96.6452 11.4458 97.6993 12.775C98.7535 14.1042 99.0973 15.7083 99.0973 17.2896C99.0973 18.9396 98.7306 20.4979 97.6993 21.8271C96.6223 23.2021 95.0181 23.8438 93.2306 23.8438ZM97.3098 17.2896C97.3098 16.0521 97.0806 14.7458 96.3473 13.8062C95.6368 12.8667 94.4681 12.3854 93.2306 12.3854C91.9931 12.3854 90.8014 12.8667 90.1139 13.8062C89.3806 14.7458 89.1514 16.0521 89.1514 17.2896C89.1514 18.5729 89.3806 19.8562 90.1139 20.7958C90.8014 21.7354 91.9931 22.2396 93.2306 22.2396C94.4681 22.2396 95.6368 21.7354 96.3473 20.7958C97.0806 19.8562 97.3098 18.5729 97.3098 17.2896Z" fill="white"/>
</svg>
