<svg width="20" height="21" viewBox="0 0 20 21" fill="none" xmlns="http://www.w3.org/2000/svg">
<path fill-rule="evenodd" clip-rule="evenodd" d="M18.3334 10.5001C18.3334 15.1025 14.6024 18.8334 10 18.8334C5.39765 18.8334 1.66669 15.1025 1.66669 10.5001C1.66669 5.89771 5.39765 2.16675 10 2.16675C14.6024 2.16675 18.3334 5.89771 18.3334 10.5001ZM13.3586 7.97481C13.6027 8.21888 13.6027 8.61461 13.3586 8.85869L9.19196 13.0254C8.94788 13.2694 8.55216 13.2694 8.30808 13.0254L6.64141 11.3587C6.39733 11.1146 6.39733 10.7189 6.64141 10.4748C6.88549 10.2307 7.28122 10.2307 7.52529 10.4748L8.75002 11.6995L10.6124 9.83717L12.4747 7.97481C12.7188 7.73073 13.1145 7.73073 13.3586 7.97481Z" fill="#D9D9D9"/>
</svg>
