<svg width="14" height="25" viewBox="0 0 14 25" fill="none" xmlns="http://www.w3.org/2000/svg">
<path d="M10.6963 5.1074H13.3365C13.628 5.1074 13.8646 4.87083 13.8646 4.57935V1.0219C13.8646 0.745207 13.6518 0.514979 13.3761 0.495441C12.536 0.435772 10.8948 0.35498 9.71467 0.35498C6.47193 0.35498 4.35975 2.29819 4.35975 5.82976V9.33177H0.663422C0.371941 9.33177 0.135376 9.56833 0.135376 9.85981V13.5561C0.135376 13.8476 0.371941 14.0842 0.663422 14.0842H4.35975V24.1171C4.35975 24.4085 4.59631 24.6451 4.88779 24.6451H8.58412C8.8756 24.6451 9.11216 24.4085 9.11216 24.1171V14.0842H12.9257C13.195 14.0842 13.421 13.8819 13.4506 13.6142L13.8614 9.9179C13.8963 9.6053 13.6513 9.33177 13.3365 9.33177H9.11216V6.69154C9.11216 5.81656 9.82133 5.1074 10.6963 5.1074Z" fill="#898989"/>
</svg>
