<svg width="28" height="25" viewBox="0 0 28 25" fill="none" xmlns="http://www.w3.org/2000/svg">
<mask id="mask0_1189_5981" style="mask-type:luminance" maskUnits="userSpaceOnUse" x="0" y="0" width="28" height="25">
<path d="M14.0001 9.41797C19.5951 9.41797 24.1267 12.418 24.1267 16.1142C24.1267 19.8104 19.5951 22.8104 14.0001 22.8104C8.40518 22.8104 3.87354 19.8104 3.87354 16.1142C3.87354 12.418 8.40518 9.41797 14.0001 9.41797Z" fill="white" stroke="white" stroke-width="2.53165" stroke-linecap="round" stroke-linejoin="round"/>
<path d="M3.79736 15.4795C5.36333 15.4795 6.6328 14.21 6.6328 12.644C6.6328 11.0781 5.36333 9.80859 3.79736 9.80859C2.23138 9.80859 0.961914 11.0781 0.961914 12.644C0.961914 14.21 2.23138 15.4795 3.79736 15.4795Z" fill="white"/>
<path d="M24.2026 15.4795C25.7686 15.4795 27.0381 14.21 27.0381 12.644C27.0381 11.0781 25.7686 9.80859 24.2026 9.80859C22.6367 9.80859 21.3672 11.0781 21.3672 12.644C21.3672 14.21 22.6367 15.4795 24.2026 15.4795Z" fill="white"/>
<path d="M22.1644 4.88454C23.29 4.88454 24.2024 3.97211 24.2024 2.84657C24.2024 1.72103 23.29 0.808594 22.1644 0.808594C21.0389 0.808594 20.1265 1.72103 20.1265 2.84657C20.1265 3.97211 21.0389 4.88454 22.1644 4.88454Z" fill="white"/>
<path d="M14 8.56893L15.4937 1.42969L21.8608 2.78412" stroke="white" stroke-width="1.01266" stroke-linecap="round" stroke-linejoin="round"/>
<path d="M9.50611 16.7322C10.6317 16.7322 11.5441 15.8198 11.5441 14.6942C11.5441 13.5687 10.6317 12.6562 9.50611 12.6562C8.38057 12.6562 7.46814 13.5687 7.46814 14.6942C7.46814 15.8198 8.38057 16.7322 9.50611 16.7322Z" fill="black"/>
<path d="M18.4935 16.7322C19.6191 16.7322 20.5315 15.8198 20.5315 14.6942C20.5315 13.5687 19.6191 12.6562 18.4935 12.6562C17.368 12.6562 16.4556 13.5687 16.4556 14.6942C16.4556 15.8198 17.368 16.7322 18.4935 16.7322Z" fill="black"/>
<path d="M9.53174 19.6699C9.53174 19.6699 10.7216 21.0117 14.0001 21.0117C17.2659 21.0117 18.4684 19.6699 18.4684 19.6699" stroke="black" stroke-width="1.01266" stroke-linecap="round" stroke-linejoin="round"/>
</mask>
<g mask="url(#mask0_1189_5981)">
<path d="M29.1898 -2.50586H-1.18994V27.8739H29.1898V-2.50586Z" fill="#898989"/>
</g>
</svg>
