<svg width="26" height="23" viewBox="0 0 26 23" fill="none" xmlns="http://www.w3.org/2000/svg">
<path d="M19.6602 7.09814C21.4563 7.09814 22.882 7.69991 23.9374 8.90343C24.9928 10.0884 25.5205 11.6993 25.5205 13.7361V22.818H20.0768V14.4582C20.0768 13.5694 19.8454 12.8751 19.3825 12.3751C18.9196 11.8567 18.2993 11.5975 17.5217 11.5975C16.707 11.5975 16.0682 11.8567 15.6053 12.3751C15.1424 12.8751 14.9109 13.5694 14.9109 14.4582V22.818H9.46729V7.23701H14.9109V9.45891C15.3923 8.75531 16.0404 8.19058 16.8551 7.76471C17.6698 7.32033 18.6048 7.09814 19.6602 7.09814Z" fill="#898989"/>
<path d="M3.67334 5.79241C2.71052 5.79241 1.93286 5.53319 1.34035 5.01475C0.766365 4.47779 0.47937 3.81122 0.47937 3.01504C0.47937 2.20035 0.766365 1.52452 1.34035 0.987566C1.93286 0.450608 2.71052 0.182129 3.67334 0.182129C4.61765 0.182129 5.37679 0.450608 5.95078 0.987566C6.54329 1.52452 6.83954 2.20035 6.83954 3.01504C6.83954 3.81122 6.54329 4.47779 5.95078 5.01475C5.37679 5.53319 4.61765 5.79241 3.67334 5.79241ZM6.36739 7.23664V22.8177H0.923749V7.23664H6.36739Z" fill="#898989"/>
</svg>
