<svg width="182" height="59" viewBox="0 0 182 59" fill="none" xmlns="http://www.w3.org/2000/svg">
<g clip-path="url(#clip0_1189_5794)">
<path d="M170.929 27.4117C170.292 32.2393 168.35 35.1192 165.602 35.3132C164.671 35.3213 163.75 35.1129 162.913 34.7043C162.076 34.2957 161.346 33.6982 160.779 32.9589C162.809 31.5301 164.521 29.6948 165.804 27.5696C167.088 25.4443 167.916 23.0754 168.235 20.6133C157.242 23.8865 145.872 25.7247 134.408 26.082C135.739 28.8391 137.755 31.2084 140.264 32.9624C135.852 38.0272 133.484 44.5535 133.621 51.2693H138.254C138.144 46.0425 139.847 40.939 143.072 36.8247C142.379 41.6127 141.944 46.4345 141.767 51.2692H149.994C149.994 51.2692 148.485 45.0315 150.941 45.0262C153.397 45.0315 151.889 51.2692 151.889 51.2692H160.115C159.952 46.7018 159.553 42.1459 158.918 37.6197C159.834 38.3572 160.862 38.9425 161.964 39.3535C163.229 39.8263 164.58 40.0248 165.929 39.9356C167.143 39.8446 168.326 39.5043 169.402 38.9361C170.48 38.3678 171.428 37.5838 172.189 36.6328C173.92 34.5658 175.041 31.6674 175.523 28.018L170.929 27.4117Z" fill="#EFEFEF"/>
<path d="M151.739 25.9531C168.08 23.2946 180.801 17.9108 180.153 13.928C179.504 9.94518 165.733 8.87156 149.393 11.53C133.052 14.1885 120.33 19.5723 120.979 23.5551C121.627 27.538 135.398 28.6116 151.739 25.9531Z" fill="url(#paint0_linear_1189_5794)"/>
<path d="M8.81347 41.4541C5.26479 40.9745 4.97565 40.3198 4.97565 39.5767C4.97565 38.9442 5.35297 37.8833 7.87861 37.8833C10.7673 37.8833 11.3885 39.0677 11.6037 39.9585L11.6423 40.1194H15.392L15.3704 39.8898C15.2639 38.7528 14.4233 35.0449 8.05984 35.0449C2.99703 35.0449 1.20002 37.6491 1.20002 39.8793C1.20002 42.5937 3.2512 44.075 7.85262 44.6817C11.7858 45.1613 12.1108 45.9857 12.1108 46.8605C12.1108 48.1445 10.9514 48.7963 8.66349 48.7963C6.26802 48.7963 4.81144 47.963 4.33256 46.3187L4.28862 46.1671H0.5L0.538678 46.41C1.0724 49.7686 3.9571 51.6946 8.45302 51.6946C13.1764 51.6946 15.8857 49.8332 15.8857 46.5883C15.8865 44.4303 15.0295 42.3145 8.81347 41.4541Z" fill="#EFEFEF"/>
<path d="M28.427 35.0449C25.4542 35.0449 23.7845 36.2748 22.8588 37.5015C22.8495 36.7604 22.823 36.0106 22.7717 35.6486L22.746 35.4683H19.0242L19.0294 35.6835C19.0591 36.9504 19.0591 38.2487 19.0591 39.5167V57.9502H22.8642V49.6048C23.4882 50.3179 24.2684 50.8774 25.144 51.2398C26.0196 51.6022 26.967 51.7577 27.9125 51.6943C32.4257 51.6943 35.8299 48.0052 35.8299 43.1131C35.8298 38.5137 32.647 35.0449 28.427 35.0449ZM31.934 43.2638C31.934 45.6763 30.7305 48.4936 27.3393 48.4936C24.4805 48.4936 22.7738 46.6063 22.7738 43.4453C22.7738 40.1405 24.46 38.2457 27.4 38.2457C30.5324 38.2457 31.934 40.7661 31.934 43.2638Z" fill="#EFEFEF"/>
<path d="M53.265 47.132V40.6346C53.265 36.9259 50.8252 35.0449 46.0137 35.0449C39.9167 35.0449 38.9337 38.6239 38.7932 40.1625L38.7727 40.3915H42.5561L42.5921 40.2255C42.83 39.121 43.3115 37.9436 46.0444 37.9436C49.1257 37.9436 49.5205 39.4304 49.5205 40.7255V41.2709H46.1347C40.6046 41.2709 37.9158 42.9909 37.9158 46.5284C37.9158 49.0997 39.8213 51.6946 44.0794 51.6946C46.7087 51.6946 48.5672 50.993 49.6158 49.6071C49.6301 50.1108 49.6811 50.6126 49.7684 51.1088L49.8064 51.2713H53.4054L53.3859 51.0432C53.3552 50.6759 53.265 48.7611 53.265 47.132ZM41.6604 46.3463C41.6604 44.6719 43.0164 43.9575 46.1951 43.9575C47.9931 43.9575 49.013 43.9575 49.5205 43.9769V44.3213C49.5205 47.2305 47.9439 48.7049 44.835 48.7049C42.8177 48.7052 41.6604 47.8455 41.6604 46.3463Z" fill="#EFEFEF"/>
<path d="M69.0312 46.0771C68.7071 46.8881 68.1303 47.573 67.3861 48.0301C66.6419 48.4872 65.7702 48.6922 64.9003 48.6146C62.1264 48.6146 60.3346 46.5502 60.3346 43.3548C60.3346 40.1777 62.1264 38.125 64.9003 38.125C65.7757 38.0481 66.6517 38.2667 67.3884 38.7458C68.1252 39.225 68.6801 39.9372 68.9646 40.7686L69.0159 40.9055H72.7604L72.7224 40.6635C72.4016 38.5765 70.3985 35.0452 64.93 35.0452C63.815 35.0018 62.703 35.1879 61.6628 35.5919C60.6227 35.996 59.6767 36.6093 58.8835 37.3941C58.0903 38.1789 57.4667 39.1182 57.0514 40.1539C56.6362 41.1896 56.4381 42.2996 56.4695 43.4149C56.4695 48.4444 59.7793 51.6943 64.9007 51.6943C68.9496 51.6943 71.8957 49.6468 72.7792 46.2175L72.8469 45.9551H69.0876L69.0312 46.0771Z" fill="#EFEFEF"/>
<path d="M83.1505 35.0449C78.2581 35.0449 74.8405 38.487 74.8405 43.4149C74.8405 47.5362 77.4286 51.6943 83.2109 51.6943C88.5712 51.6943 90.4826 48.5577 91.1455 46.6885L91.2452 46.4082H87.4381L87.3785 46.5165C86.5609 47.9884 85.3132 48.645 83.3315 48.645C82.1488 48.6929 80.9948 48.2719 80.1199 47.4734C79.2459 46.6748 78.7222 45.5633 78.6627 44.3807H91.369V43.3244C91.369 39.5053 89.2163 35.0449 83.1505 35.0449ZM83.1204 38.0043C86.4866 38.0043 87.2926 40.2189 87.4543 41.6939H78.7346C79.0726 39.345 80.6598 38.0043 83.1204 38.0043Z" fill="#EFEFEF"/>
<path d="M98.2887 28.1836H94.4823V51.2698H98.2887V28.1836Z" fill="#EFEFEF"/>
<path d="M104.515 28.2441C104.133 28.2441 103.759 28.3574 103.441 28.5697C103.123 28.782 102.876 29.0838 102.729 29.4369C102.583 29.7899 102.545 30.1784 102.62 30.5533C102.694 30.9281 102.878 31.2725 103.148 31.5427C103.419 31.8129 103.763 31.997 104.137 32.0716C104.512 32.1461 104.901 32.1079 105.254 31.9616C105.607 31.8153 105.909 31.5677 106.121 31.2499C106.333 30.9321 106.447 30.5585 106.447 30.1764C106.446 29.6641 106.243 29.173 105.88 28.8108C105.518 28.4486 105.027 28.2448 104.515 28.2441Z" fill="#EFEFEF"/>
<path d="M106.447 35.4668H102.641V51.2696H106.447V35.4668Z" fill="#EFEFEF"/>
<path d="M129.412 38.486V35.4668H125.514V30.631H121.709V35.4668H115.722V33.9241C115.722 31.7453 116.26 31.0815 118.022 31.0815C118.432 31.0792 118.841 31.1179 119.244 31.1969L119.501 31.2564V28.1714L119.345 28.13C118.712 27.989 118.065 27.9259 117.417 27.9419C113.82 27.9419 111.919 29.9684 111.919 33.8031V35.4668H109.106V38.486H111.918V51.2696H115.722V38.486H121.709V46.7085C121.709 50.0558 123.022 51.421 126.24 51.421C127.12 51.4561 128 51.3506 128.846 51.1085L128.989 51.0603V48.2322L128.735 48.2863C128.271 48.3683 127.799 48.4071 127.328 48.4024C125.936 48.4024 125.513 47.8939 125.513 46.2246V38.4865L129.412 38.486Z" fill="#EFEFEF"/>
<path d="M166.617 10.6065C164.753 6.73978 161.56 3.67297 157.621 1.96675C153.682 0.26052 149.261 0.0288664 145.165 1.31412C141.07 2.59939 137.573 5.3157 135.316 8.96649C133.058 12.6174 132.189 16.9587 132.869 21.1971C133.731 26.5287 169.06 21.0771 168.157 15.4924C167.882 13.7982 167.363 12.1526 166.617 10.6065Z" fill="#EFEFEF"/>
</g>
<defs>
<linearGradient id="paint0_linear_1189_5794" x1="120.955" y1="18.7417" x2="180.176" y2="18.7417" gradientUnits="userSpaceOnUse">
<stop offset="0.0817" stop-color="#858585"/>
<stop offset="0.9512" stop-color="#363636"/>
</linearGradient>
<clipPath id="clip0_1189_5794">
<rect width="181" height="58.0128" fill="white" transform="translate(0.5 0.494141)"/>
</clipPath>
</defs>
</svg>
