<svg width="181" height="39" viewBox="0 0 181 39" fill="none" xmlns="http://www.w3.org/2000/svg">
<g clip-path="url(#clip0_1189_5778)">
<path fill-rule="evenodd" clip-rule="evenodd" d="M168.727 7.04902C168.727 5.83172 169.717 4.93372 170.887 4.93372C172.046 4.93372 173.037 5.83172 173.037 7.04902C173.037 8.27756 172.046 9.17556 170.887 9.17556C169.717 9.17556 168.727 8.27756 168.727 7.04902Z" fill="white"/>
<path fill-rule="evenodd" clip-rule="evenodd" d="M8.00745 0V5.18947H14.6171V31.7014H20.6653V5.18947H27.6966V0H8.00745ZM47.9492 10.3789V5.1904H29.6657V31.7014H47.9492V26.5775H35.713V21.0379H41.6203L46.121 15.8484H35.713V10.3789H47.9492ZM162.113 5.1904V19.947L153.71 5.1904H147.311V31.7014H151.882V13.7499L162.113 31.7014H166.683V5.1904H162.113ZM133.685 32.3382C140.995 32.3382 144.991 26.2114 144.991 18.6529C144.991 11.0953 141.406 4.96754 133.685 4.96754C126.167 4.96754 122.376 11.0943 122.376 18.6529C122.376 26.2114 126.44 32.3382 133.685 32.3382Z" fill="white"/>
<path fill-rule="evenodd" clip-rule="evenodd" d="M64.8533 22.2983C64.2091 25.3528 62.6823 27.4775 60.2784 27.4775C57.0661 27.4775 55.3495 23.5268 55.3495 18.652C55.3495 13.7781 57.0661 9.82559 60.2784 9.82559C62.8626 9.82559 64.4345 12.2808 64.9838 15.7071H71.3888C70.5493 9.56528 66.967 4.96667 60.2784 4.96667C52.7607 4.96667 48.9708 11.0935 48.9708 18.652C48.9708 26.2105 53.0349 32.3373 60.2784 32.3373C66.3679 32.3373 70.1549 28.0852 71.2508 22.2983H64.8533ZM116.665 20.2467C119.018 19.1548 121.364 16.8822 121.364 13.0486C121.364 7.29828 115.668 5.18953 113.417 5.18953H100.337V15.3952C98.9819 15.2361 97.622 15.1246 96.2594 15.0609V5.18953H90.2113V15.0947C86.8365 15.3156 83.4513 16.238 80.2962 17.7446V5.18953H74.249V21.5951C73.091 22.5469 72.0094 23.5876 71.0141 24.7076L70.7944 24.9567L71.1888 25.202L70.939 25.4914L74.249 27.4737V31.7025H80.2962V26.7499C82.8597 22.8583 86.0759 20.1352 90.2113 18.3055V31.7025H96.2594V16.6734C97.6116 16.4978 98.9731 16.404 100.337 16.3925V31.7025H106.385V9.96886L106.408 10.0082H112.096C112.967 10.0082 115.175 10.8228 115.175 13.0505C115.175 15.2782 113.132 16.1481 112.096 16.1481H110.253L106.408 21.0445H110.801L120.87 38.2197H127.199L116.665 20.2467Z" fill="white"/>
<path fill-rule="evenodd" clip-rule="evenodd" d="M170.438 8.278H170.066V5.83215H171.001C171.578 5.83215 171.867 6.04565 171.867 6.52789C171.867 6.96519 171.592 7.15621 171.23 7.20116L171.929 8.278H171.513L170.866 7.21708H170.438V8.278H170.438Z" fill="white"/>
</g>
<defs>
<clipPath id="clip0_1189_5778">
<rect width="181" height="38.1927" fill="white"/>
</clipPath>
</defs>
</svg>
