<svg width="181" height="107" viewBox="0 0 181 107" fill="none" xmlns="http://www.w3.org/2000/svg">
<g clip-path="url(#clip0_1189_5808)">
<path fill-rule="evenodd" clip-rule="evenodd" d="M90.0449 106.223C137.661 106.223 176.265 82.5857 176.265 53.4345C176.265 24.2833 137.661 0.646484 90.0449 0.646484C42.4291 0.646484 3.82898 24.2833 3.82898 53.4345C3.82898 82.5857 42.4291 106.223 90.0449 106.223Z" fill="white"/>
<path fill-rule="evenodd" clip-rule="evenodd" d="M90.045 107.183C120.812 107.183 148.693 97.5088 164.632 81.3044C172.858 72.9329 177.207 63.2983 177.207 53.4345C177.207 43.5706 172.858 33.9361 164.632 25.5682C148.693 9.36014 120.812 -0.314453 90.045 -0.314453C41.9851 -0.314453 2.88269 23.7992 2.88269 53.4345C2.88269 63.2983 7.23225 72.9329 15.4618 81.3044C31.3969 97.5088 59.2778 107.183 90.045 107.183ZM4.77539 53.4345C4.77539 44.0911 8.93204 34.9261 16.7976 26.9258C32.154 11.3111 60.2205 1.611 90.045 1.611C119.87 1.611 147.936 11.3111 163.292 26.9258C171.162 34.9261 175.318 44.0911 175.318 53.4345C175.318 82.0106 137.064 105.258 90.045 105.258C60.2205 105.258 32.154 95.5579 16.7976 79.9432C8.93204 71.9429 4.77539 62.7779 4.77539 53.4345Z" fill="#231F20"/>
<path fill-rule="evenodd" clip-rule="evenodd" d="M90.005 93.4996C129.624 93.4996 161.749 75.5627 161.749 53.4363C161.749 31.31 129.624 13.373 90.005 13.373C50.3821 13.373 18.2609 31.31 18.2609 53.4363C18.2609 75.5627 50.3821 93.4996 90.005 93.4996Z" fill="#231F20"/>
<path fill-rule="evenodd" clip-rule="evenodd" d="M34.4652 64.331C33.9265 64.0944 33.8282 63.927 33.8282 63.1844C33.8282 61.3318 33.9629 59.3117 33.9957 58.773C34.0284 58.2671 34.1304 57.8958 34.3997 57.8958C34.7018 57.8958 34.7382 58.2016 34.7382 58.4709C34.7382 58.9077 34.8729 59.6174 35.0403 60.1889C35.7792 62.6785 37.7665 63.5885 39.8558 63.5885C42.8877 63.5885 44.3691 61.5356 44.3691 59.7485C44.3691 58.0996 43.8632 56.5163 41.0678 54.3616L39.5209 53.1495C35.8156 50.2522 34.5344 47.8936 34.5344 45.1674C34.5344 41.4585 37.6318 38.8014 42.3163 38.8014C44.5038 38.8014 45.9197 39.1363 46.7932 39.3729C47.099 39.4384 47.2664 39.5403 47.2664 39.7769C47.2664 40.2137 47.1317 41.1891 47.1317 43.8171C47.1317 44.5596 47.0298 44.8289 46.7605 44.8289C46.5239 44.8289 46.4256 44.6251 46.4256 44.2247C46.4256 43.919 46.2545 42.8744 45.5484 42.0008C45.0425 41.3602 44.067 40.3483 41.8758 40.3483C39.3862 40.3483 37.8684 41.797 37.8684 43.8171C37.8684 45.3676 38.6437 46.5469 41.4391 48.6689L42.3818 49.375C46.4256 52.5089 47.907 54.7656 47.907 57.965C47.907 59.9195 47.1645 62.2417 44.7404 63.8251C43.0551 64.9024 41.1697 65.2082 39.3862 65.2082C37.4316 65.2082 35.9139 64.9716 34.4652 64.331ZM86.1868 54.2597H79.9882C79.8535 54.2597 79.8208 54.1577 79.8535 54.0231L82.951 45.7389C82.9838 45.6042 83.0529 45.4368 83.1548 45.4368C83.2531 45.4368 83.2895 45.6042 83.3223 45.7389L86.3542 54.0595C86.387 54.1577 86.3542 54.2597 86.1868 54.2597ZM142.516 59.6174C142.283 59.6174 142.214 59.7485 142.149 60.1197C141.912 61.5029 141.508 62.209 140.631 62.613C139.757 63.017 138.341 63.017 137.464 63.017C134.028 63.017 133.49 62.5111 133.424 60.1889C133.391 59.2134 133.424 56.1123 133.424 54.9658V52.3051C133.424 52.1049 133.457 51.9702 133.624 51.9702C134.432 51.9702 137.77 52.003 138.407 52.0721C139.655 52.2032 140.125 52.7091 140.292 53.3861C140.394 53.8229 140.394 54.2597 140.431 54.5982C140.431 54.7656 140.496 54.9003 140.733 54.9003C141.035 54.9003 141.035 54.529 141.035 54.2597C141.035 54.0231 141.104 52.6763 141.17 52.003C141.272 50.285 141.439 49.7463 141.439 49.5461C141.439 49.3423 141.341 49.2768 141.202 49.2768C141.035 49.2768 140.9 49.4442 140.664 49.7135C140.362 50.0484 139.856 50.1503 139.048 50.2195C138.272 50.285 134.4 50.285 133.657 50.285C133.457 50.285 133.424 50.1503 133.424 49.9137V41.393C133.424 41.1564 133.49 41.0545 133.657 41.0545C134.33 41.0545 137.868 41.1236 138.443 41.1891C140.125 41.393 140.463 41.797 140.7 42.4048C140.868 42.8088 140.9 43.3803 140.9 43.6169C140.9 43.919 140.969 44.0864 141.202 44.0864C141.439 44.0864 141.508 43.8862 141.541 43.7188C141.606 43.3148 141.676 41.8297 141.708 41.4949C141.81 39.9443 141.978 39.5403 141.978 39.3037C141.978 39.1363 141.945 39.0016 141.777 39.0016C141.606 39.0016 141.406 39.1035 141.239 39.1363C140.969 39.2054 140.431 39.271 139.79 39.3401C139.15 39.3729 132.445 39.3729 131.368 39.3729C130.425 39.3729 128.303 39.271 126.519 39.271C126.519 39.271 126.519 39.271 126.516 39.271C134.436 33.1743 137.948 28.4935 135.073 26.8228C130.254 24.0311 109.132 30.6264 85.7755 41.8989C85.3278 40.7851 84.9966 39.9698 84.8364 39.6095C84.5016 38.8342 84.2977 38.5321 83.9956 38.5321C83.6571 38.5321 83.4569 38.8997 83.0529 39.8788L81.3822 44.0609C79.97 44.7671 78.5541 45.4914 77.1382 46.2303C74.1936 47.7626 71.4056 49.3423 68.7085 50.8601C70.0879 49.4296 70.936 47.5042 70.936 45.2002C70.936 43.413 69.9933 41.8989 69.2508 41.1891C68.7121 40.6868 67.1979 39.271 62.9867 39.271C61.4361 39.271 59.4852 39.3729 58.1021 39.3729C57.1594 39.3729 55.0374 39.271 53.2539 39.271C52.7479 39.271 52.5113 39.3401 52.5113 39.5731C52.5113 39.8096 52.7152 39.8788 53.0828 39.8788C53.556 39.8788 54.1274 39.9116 54.3968 39.9771C55.5105 40.2137 55.7799 40.7524 55.8454 41.8989C55.9146 42.9763 55.9146 43.919 55.9146 49.0402V54.9658C55.9146 58.0669 55.9146 60.7276 55.7471 62.1435C55.6088 63.1189 55.4414 63.8578 54.768 63.9925C54.4659 64.0616 54.0619 64.1272 53.556 64.1272C53.1519 64.1272 53.0173 64.2291 53.0173 64.4001C53.0173 64.6331 53.2539 64.735 53.6906 64.735C55.0374 64.735 57.1594 64.6331 57.9346 64.6331C58.8118 64.6331 60.9338 64.735 63.1578 64.735C63.5254 64.735 63.7947 64.6331 63.7947 64.4001C63.7947 64.2291 63.6273 64.1272 63.256 64.1272C62.7501 64.1272 62.0112 64.0616 61.538 63.9925C60.5298 63.8578 60.326 63.1189 60.2241 62.1762C60.0567 60.7276 60.0567 58.0669 60.0567 54.9658V41.4949C60.0567 41.1236 60.1586 40.9234 60.326 40.8543C60.6281 40.7524 61.134 40.7196 61.64 40.7196C62.4152 40.7196 63.7947 40.9234 65.0068 42.0336C66.8958 43.7188 66.9941 45.6006 66.9941 47.0856C66.9941 50.3068 65.702 52.6399 64.2788 53.7574C63.9549 53.9903 63.8639 54.5217 64.752 53.9721C68.7485 51.5735 73.149 49.0729 77.8771 46.6015C78.9217 46.0555 79.9664 45.5169 81.011 44.9854L74.5977 61.0297C73.9243 62.7149 73.2837 63.8578 71.7368 64.0616C71.4674 64.0944 70.9943 64.1272 70.6922 64.1272C70.4228 64.1272 70.2881 64.1963 70.2881 64.4001C70.2881 64.6695 70.4883 64.735 70.9251 64.735C72.6795 64.735 74.5321 64.6331 74.9034 64.6331C75.9444 64.6331 77.393 64.735 78.474 64.735C78.8417 64.735 79.0455 64.6695 79.0455 64.4001C79.0455 64.1963 78.9436 64.1272 78.5396 64.1272H78.0336C76.989 64.1272 76.6869 63.6904 76.6869 63.0825C76.6869 62.6785 76.8543 61.8705 77.1928 61.0297L79.0127 56.2142C79.0783 56.0104 79.1438 55.9449 79.3148 55.9449H86.8237C86.9948 55.9449 87.0931 56.0104 87.1622 56.1815L88.9057 60.804C66.965 71.5196 46.9606 77.831 42.4291 75.1921C39.2334 73.3322 43.4191 67.9926 54.0255 60.6329C54.4805 60.3126 54.4987 59.6939 54.0401 60.0579C40.7875 68.7934 35.0803 74.8391 38.782 76.9866C43.6739 79.822 65.3598 72.9864 89.135 61.4046L89.8557 63.3191C90.0268 63.7231 89.7902 64.0289 89.5536 64.0944C89.2151 64.1272 89.0804 64.1963 89.0804 64.4001C89.0804 64.6331 89.4844 64.6331 90.0923 64.6695C92.7857 64.735 95.2462 64.735 96.4583 64.735C97.7031 64.735 98.0089 64.6695 98.0089 64.4001C98.0089 64.1636 97.8414 64.1272 97.5684 64.1272C97.1644 64.1272 96.6585 64.0944 96.1562 63.9925C95.4501 63.8251 94.471 63.3555 93.1898 60.3236C93.0915 60.0833 92.9823 59.8285 92.8695 59.5556C94.1507 58.9077 95.4355 58.2525 96.7204 57.5828C97.401 57.2261 98.078 56.8694 98.7477 56.5163C100.746 61.532 105.645 65.0808 111.378 65.0808C115.469 65.0808 119.138 63.2682 121.631 60.4036C119.549 62.6312 116.696 64.007 113.544 64.007C107.181 64.007 102.02 58.4017 102.02 51.4898C102.02 44.5814 107.181 38.9761 113.544 38.9761C116.452 38.9761 119.345 40.392 121.398 42.3357L121.78 42.736L121.824 42.6924C123.265 41.6914 124.612 40.716 125.861 39.7732C125.952 39.8497 126.119 39.8788 126.348 39.8788C126.822 39.8788 127.393 39.9116 127.662 39.9771C128.776 40.2137 129.042 40.7524 129.111 41.8989C129.18 42.9763 129.18 43.919 129.18 49.0402V54.9658C129.18 58.0669 129.18 60.7276 129.009 62.1435C128.878 63.1189 128.707 63.8578 128.034 63.9925C127.731 64.0616 127.327 64.1272 126.822 64.1272C126.417 64.1272 126.283 64.2291 126.283 64.4001C126.283 64.6331 126.519 64.735 126.956 64.735C128.303 64.735 130.425 64.6331 131.2 64.6331C133.188 64.6331 135.444 64.8369 140.529 64.8369C141.81 64.8369 142.112 64.8369 142.349 63.9597C142.516 63.2864 142.786 60.9969 142.786 60.2216C142.786 59.8831 142.786 59.6174 142.516 59.6174ZM121.391 42.2192C118.894 39.6204 115.24 37.9024 111.378 37.9024C103.869 37.9024 97.7832 43.9845 97.7832 51.4898C97.7832 53.0294 98.0452 54.5108 98.5184 55.8903C97.7067 56.3198 96.8842 56.7529 96.047 57.1897C94.9041 57.7903 93.7612 58.3763 92.6219 58.955C90.8093 54.5581 87.7483 46.809 86.0193 42.5031C107.567 32.0824 127.033 26.0002 131.495 28.6027C134.902 30.5864 130.811 35.6057 121.391 42.2192Z" fill="white"/>
<path fill-rule="evenodd" clip-rule="evenodd" d="M140.755 77.0349C140.685 76.2341 143.011 75.5098 142.211 75.579C141.41 75.6481 140.685 73.3223 140.755 74.1231C140.824 74.9238 138.498 75.6481 139.299 75.579C140.099 75.5098 140.824 77.8357 140.755 77.0349Z" fill="white"/>
<path fill-rule="evenodd" clip-rule="evenodd" d="M95.2607 89.7888C95.1916 88.9881 97.5174 88.2601 96.7167 88.3329C95.9159 88.402 95.1916 86.0762 95.2607 86.877C95.3299 87.6777 93.0041 88.402 93.8048 88.3329C94.6056 88.2601 95.3299 90.5896 95.2607 89.7888Z" fill="white"/>
<path fill-rule="evenodd" clip-rule="evenodd" d="M108.644 21.9424C108.59 21.3018 110.45 20.7194 109.809 20.7777C109.169 20.8323 108.59 18.9723 108.644 19.6129C108.703 20.2535 106.839 20.8323 107.48 20.7777C108.12 20.7194 108.703 22.583 108.644 21.9424Z" fill="white"/>
<path fill-rule="evenodd" clip-rule="evenodd" d="M148.864 50.9073C148.81 50.2667 150.669 49.6843 150.029 49.7425C149.388 49.7971 148.81 47.9372 148.864 48.5778C148.922 49.2184 147.059 49.7971 147.699 49.7425C148.34 49.6843 148.922 51.5479 148.864 50.9073Z" fill="white"/>
<path fill-rule="evenodd" clip-rule="evenodd" d="M115.855 81.7547C115.797 81.1141 117.66 80.5354 117.02 80.59C116.375 80.6482 115.797 78.7846 115.855 79.4252C115.909 80.0658 114.046 80.6482 114.69 80.59C115.327 80.5354 115.909 82.3953 115.855 81.7547Z" fill="white"/>
<path fill-rule="evenodd" clip-rule="evenodd" d="M87.8466 30.2782C87.7992 29.7177 89.4262 29.2081 88.8657 29.2591C88.3052 29.3064 87.7992 27.6757 87.8466 28.2399C87.8975 28.8004 86.2669 29.3064 86.8274 29.2591C87.3879 29.2081 87.8975 30.8387 87.8466 30.2782Z" fill="white"/>
<path fill-rule="evenodd" clip-rule="evenodd" d="M31.0147 68.9899C30.9637 68.4294 32.5943 67.9198 32.0338 67.9708C31.4733 68.0181 30.9637 66.3911 31.0147 66.9516C31.062 67.5122 29.435 68.0181 29.9955 67.9708C30.556 67.9198 31.062 69.5505 31.0147 68.9899Z" fill="white"/>
<path fill-rule="evenodd" clip-rule="evenodd" d="M144.678 34.7829C144.631 34.2224 146.262 33.7164 145.697 33.7637C145.141 33.8111 144.631 32.1841 144.678 32.7446C144.729 33.3051 143.099 33.8111 143.663 33.7637C144.223 33.7164 144.729 35.3434 144.678 34.7829Z" fill="white"/>
<path fill-rule="evenodd" clip-rule="evenodd" d="M59.9401 84.3355C59.8892 83.775 61.5198 83.2691 60.9593 83.3164C60.3988 83.3674 59.8892 81.7367 59.9401 82.2973C59.9875 82.8614 58.3568 83.3674 58.9174 83.3164C59.4815 83.2691 59.9875 84.8997 59.9401 84.3355Z" fill="white"/>
<path fill-rule="evenodd" clip-rule="evenodd" d="M25.6605 50.457C25.6096 49.8964 27.2402 49.3905 26.6797 49.4378C26.1192 49.4851 25.6096 47.8581 25.6605 48.4187C25.7079 48.9792 24.0809 49.4851 24.6414 49.4378C25.2019 49.3905 25.7079 51.0175 25.6605 50.457Z" fill="white"/>
<path fill-rule="evenodd" clip-rule="evenodd" d="M102.879 70.6362C102.832 70.0757 104.459 69.5697 103.898 69.6171C103.338 69.668 102.832 68.0374 102.879 68.5979C102.93 69.1584 101.299 69.668 101.86 69.6171C102.42 69.5697 102.93 71.1967 102.879 70.6362Z" fill="white"/>
<path fill-rule="evenodd" clip-rule="evenodd" d="M91.9668 18.7434C91.9304 18.343 93.0952 17.9827 92.6948 18.0191C92.2944 18.0518 91.9304 16.8907 91.9668 17.2911C91.9996 17.6879 90.8385 18.0518 91.2389 18.0191C91.6393 17.9827 91.9996 19.1474 91.9668 18.7434Z" fill="white"/>
<path fill-rule="evenodd" clip-rule="evenodd" d="M59.8419 21.6294C59.8055 21.2254 60.9702 20.865 60.5698 20.9014C60.1695 20.9342 59.8055 19.7694 59.8419 20.1698C59.8783 20.5702 58.7135 20.9342 59.1139 20.9014C59.5143 20.865 59.8783 22.0298 59.8419 21.6294Z" fill="white"/>
<path fill-rule="evenodd" clip-rule="evenodd" d="M34.72 34.393C34.7018 34.1928 35.2842 34.0108 35.084 34.029C34.8838 34.0472 34.7018 33.4648 34.72 33.665C34.7382 33.8652 34.1558 34.0472 34.356 34.029C34.5562 34.0108 34.7382 34.5931 34.72 34.393Z" fill="white"/>
<path fill-rule="evenodd" clip-rule="evenodd" d="M61.6945 36.0433C61.6799 35.8432 62.2587 35.6612 62.0585 35.6794C61.8583 35.6976 61.6799 35.1152 61.6945 35.3154C61.7127 35.5156 61.1303 35.6976 61.3305 35.6794C61.5307 35.6612 61.7127 36.2435 61.6945 36.0433Z" fill="white"/>
<path fill-rule="evenodd" clip-rule="evenodd" d="M73.2291 17.7172C73.2109 17.517 73.7933 17.335 73.5931 17.3532C73.3929 17.3714 73.2109 16.789 73.2291 16.9892C73.2436 17.1894 72.6613 17.3714 72.8651 17.3532C73.0616 17.335 73.2436 17.9174 73.2291 17.7172Z" fill="white"/>
<path fill-rule="evenodd" clip-rule="evenodd" d="M71.784 34.1912C71.7695 33.991 72.3519 33.809 72.1517 33.8272C71.9515 33.8418 71.7695 33.2594 71.784 33.4632C71.8022 33.6634 71.2199 33.8418 71.4237 33.8272C71.6203 33.809 71.8022 34.3914 71.784 34.1912Z" fill="white"/>
<path fill-rule="evenodd" clip-rule="evenodd" d="M75.0818 42.6312C75.0636 42.431 75.6459 42.2491 75.4457 42.2673C75.2456 42.2855 75.0636 41.7031 75.0818 41.9033C75.1 42.1035 74.5176 42.2855 74.7178 42.2673C74.918 42.2491 75.1 42.8314 75.0818 42.6312Z" fill="white"/>
<path fill-rule="evenodd" clip-rule="evenodd" d="M89.4954 36.4555C89.4772 36.2553 90.0596 36.0733 89.8594 36.0915C89.6592 36.1097 89.4772 35.5273 89.4954 35.7275C89.5136 35.9277 88.9312 36.1097 89.1314 36.0915C89.3316 36.0733 89.5136 36.6556 89.4954 36.4555Z" fill="white"/>
<path fill-rule="evenodd" clip-rule="evenodd" d="M81.0511 30.6898C81.0365 30.4896 81.6152 30.3076 81.415 30.3258C81.2149 30.344 81.0365 29.7617 81.0511 29.9619C81.0693 30.1621 80.4869 30.344 80.6871 30.3258C80.8873 30.3076 81.0693 30.89 81.0511 30.6898Z" fill="white"/>
<path fill-rule="evenodd" clip-rule="evenodd" d="M86.8164 22.6547C86.8019 22.4545 87.3843 22.2761 87.1841 22.2943C86.9802 22.3089 86.8019 21.7265 86.8164 21.9267C86.8346 22.1305 86.2523 22.3089 86.4525 22.2943C86.6527 22.2761 86.8346 22.8548 86.8164 22.6547Z" fill="white"/>
<path fill-rule="evenodd" clip-rule="evenodd" d="M82.6999 17.098C82.6817 16.8978 83.264 16.7159 83.0639 16.7341C82.8637 16.7522 82.6817 16.1699 82.6999 16.3701C82.7181 16.5703 82.1357 16.7522 82.3359 16.7341C82.5361 16.7159 82.7181 17.2982 82.6999 17.098Z" fill="white"/>
<path fill-rule="evenodd" clip-rule="evenodd" d="M56.7554 28.8365C56.7372 28.6363 57.3195 28.4543 57.1194 28.4725C56.9192 28.4871 56.7372 27.9084 56.7554 28.1086C56.7699 28.3087 56.1912 28.4871 56.3914 28.4725C56.5916 28.4543 56.7699 29.0367 56.7554 28.8365Z" fill="white"/>
<path fill-rule="evenodd" clip-rule="evenodd" d="M50.7824 36.2465C50.7642 36.0463 51.3466 35.8643 51.1464 35.8825C50.9462 35.9007 50.7642 35.3183 50.7824 35.5185C50.8006 35.7223 50.2182 35.9007 50.4184 35.8825C50.6186 35.8643 50.8006 36.4467 50.7824 36.2465Z" fill="white"/>
<path fill-rule="evenodd" clip-rule="evenodd" d="M50.3711 23.481C50.3529 23.2809 50.9353 23.0989 50.7351 23.1171C50.5349 23.1316 50.3529 22.5529 50.3711 22.7531C50.3893 22.9533 49.807 23.1316 50.0072 23.1171C50.2073 23.0989 50.3893 23.6812 50.3711 23.481Z" fill="white"/>
<path fill-rule="evenodd" clip-rule="evenodd" d="M30.3959 42.2211C30.3777 42.0209 30.9601 41.8389 30.7599 41.8571C30.5597 41.8753 30.3777 41.2929 30.3959 41.4931C30.4141 41.6933 29.8317 41.8753 30.0319 41.8571C30.2321 41.8389 30.4141 42.4213 30.3959 42.2211Z" fill="white"/>
<path fill-rule="evenodd" clip-rule="evenodd" d="M23.393 44.2797C23.3784 44.0795 23.9608 43.8975 23.757 43.9157C23.5568 43.9339 23.3784 43.3515 23.393 43.5517C23.4112 43.7519 22.8324 43.9339 23.0326 43.9157C23.2292 43.8975 23.4112 44.4799 23.393 44.2797Z" fill="white"/>
<path fill-rule="evenodd" clip-rule="evenodd" d="M23.393 61.1664C23.3784 60.9662 23.9608 60.7842 23.757 60.8024C23.5568 60.8206 23.3784 60.2382 23.393 60.4384C23.4112 60.6386 22.8324 60.8206 23.0326 60.8024C23.2292 60.7842 23.4112 61.3666 23.393 61.1664Z" fill="white"/>
<path fill-rule="evenodd" clip-rule="evenodd" d="M32.6598 53.7504C32.6453 53.5502 33.224 53.3682 33.0238 53.3864C32.8236 53.4046 32.6453 52.8222 32.6598 53.0224C32.678 53.2226 32.0957 53.4046 32.2959 53.3864C32.496 53.3682 32.678 53.9506 32.6598 53.7504Z" fill="white"/>
<path fill-rule="evenodd" clip-rule="evenodd" d="M39.4554 58.6936C39.4408 58.4934 40.0195 58.3114 39.8193 58.3296C39.6192 58.3478 39.4408 57.7655 39.4554 57.9657C39.4736 58.1658 38.8912 58.3478 39.0914 58.3296C39.2916 58.3114 39.4736 58.8938 39.4554 58.6936Z" fill="white"/>
<path fill-rule="evenodd" clip-rule="evenodd" d="M36.984 69.1937C36.9694 68.9935 37.5482 68.8116 37.348 68.8298C37.1478 68.848 36.9694 68.2656 36.984 68.4658C37.0022 68.666 36.4235 68.848 36.62 68.8298C36.8238 68.8116 37.0022 69.3939 36.984 69.1937Z" fill="white"/>
<path fill-rule="evenodd" clip-rule="evenodd" d="M50.3711 53.1329C50.3529 52.9327 50.9353 52.7543 50.7351 52.7725C50.5349 52.7871 50.3529 52.2047 50.3711 52.4086C50.3893 52.6051 49.807 52.7871 50.0072 52.7725C50.2073 52.7543 50.3893 53.3367 50.3711 53.1329Z" fill="white"/>
<path fill-rule="evenodd" clip-rule="evenodd" d="M43.987 47.1625C43.9688 46.9623 44.5511 46.7803 44.351 46.7985C44.1508 46.8167 43.9688 46.2343 43.987 46.4345C44.0052 46.6347 43.4228 46.8167 43.623 46.7985C43.8232 46.7803 44.0052 47.3627 43.987 47.1625Z" fill="white"/>
<path fill-rule="evenodd" clip-rule="evenodd" d="M40.2816 28.8365C40.2634 28.6363 40.8458 28.4543 40.6456 28.4725C40.4454 28.4871 40.2634 27.9084 40.2816 28.1086C40.2962 28.3087 39.7174 28.4871 39.9176 28.4725C40.1178 28.4543 40.2962 29.0367 40.2816 28.8365Z" fill="white"/>
<path fill-rule="evenodd" clip-rule="evenodd" d="M64.3735 58.8966C64.3553 58.7 64.9376 58.518 64.7374 58.5362C64.5372 58.5508 64.3553 57.9684 64.3735 58.1722C64.3917 58.3688 63.8093 58.5508 64.0095 58.5362C64.2097 58.518 64.3917 59.1004 64.3735 58.8966Z" fill="white"/>
<path fill-rule="evenodd" clip-rule="evenodd" d="M64.9922 47.1625C64.974 46.9623 65.5564 46.7803 65.3562 46.7985C65.156 46.8167 64.974 46.2343 64.9922 46.4345C65.0067 46.6347 64.428 46.8167 64.6282 46.7985C64.8284 46.7803 65.0067 47.3627 64.9922 47.1625Z" fill="white"/>
<path fill-rule="evenodd" clip-rule="evenodd" d="M68.905 67.7523C68.8868 67.5521 69.4692 67.3701 69.269 67.3883C69.0652 67.4065 68.8868 66.8242 68.905 67.0244C68.9196 67.2246 68.3372 67.4065 68.5374 67.3883C68.7412 67.3701 68.9196 67.9525 68.905 67.7523Z" fill="white"/>
<path fill-rule="evenodd" clip-rule="evenodd" d="M55.9291 68.9906C55.9146 68.7904 56.4933 68.6084 56.2931 68.6266C56.0929 68.6448 55.9146 68.0625 55.9291 68.2626C55.9473 68.4628 55.365 68.6448 55.5651 68.6266C55.7653 68.6084 55.9473 69.1908 55.9291 68.9906Z" fill="white"/>
<path fill-rule="evenodd" clip-rule="evenodd" d="M47.8997 72.6957C47.8815 72.4955 48.4639 72.3135 48.2637 72.3317C48.0635 72.3499 47.8815 71.7675 47.8997 71.9677C47.9179 72.1679 47.3355 72.3499 47.5357 72.3317C47.7359 72.3135 47.9179 72.8959 47.8997 72.6957Z" fill="white"/>
<path fill-rule="evenodd" clip-rule="evenodd" d="M50.7824 82.3734C50.7642 82.1732 51.3466 81.9912 51.1464 82.0094C50.9462 82.0276 50.7642 81.4453 50.7824 81.6455C50.8006 81.8457 50.2182 82.0276 50.4184 82.0094C50.6186 81.9912 50.8006 82.5736 50.7824 82.3734Z" fill="white"/>
<path fill-rule="evenodd" clip-rule="evenodd" d="M41.308 81.1404C41.2934 80.9402 41.8758 80.7583 41.672 80.7728C41.4754 80.791 41.2934 80.2086 41.308 80.4125C41.3262 80.609 40.7438 80.791 40.9476 80.7728C41.1442 80.7583 41.3262 81.3406 41.308 81.1404Z" fill="white"/>
<path fill-rule="evenodd" clip-rule="evenodd" d="M69.7276 75.1664C69.7094 74.9662 70.2918 74.7842 70.0916 74.8024C69.8914 74.8206 69.7094 74.2382 69.7276 74.4384C69.7458 74.6386 69.1634 74.8206 69.3636 74.8024C69.5638 74.7842 69.7458 75.3666 69.7276 75.1664Z" fill="white"/>
<path fill-rule="evenodd" clip-rule="evenodd" d="M57.5779 77.639C57.5597 77.4389 58.1421 77.2569 57.9419 77.2751C57.7417 77.2933 57.5597 76.7109 57.5779 76.9111C57.5961 77.1113 57.0138 77.2933 57.2139 77.2751C57.4141 77.2569 57.5961 77.8392 57.5779 77.639Z" fill="white"/>
<path fill-rule="evenodd" clip-rule="evenodd" d="M68.2863 88.7582C68.2681 88.558 68.8505 88.376 68.6503 88.3942C68.4501 88.4124 68.2681 87.83 68.2863 88.0302C68.3045 88.2304 67.7221 88.4124 67.9223 88.3942C68.1225 88.376 68.3045 88.9584 68.2863 88.7582Z" fill="white"/>
<path fill-rule="evenodd" clip-rule="evenodd" d="M73.4329 81.3441C73.4147 81.1439 73.9971 80.9619 73.7969 80.9801C73.5967 80.9983 73.4147 80.416 73.4329 80.6162C73.4511 80.8164 72.8687 80.9983 73.0689 80.9801C73.2691 80.9619 73.4511 81.5443 73.4329 81.3441Z" fill="white"/>
<path fill-rule="evenodd" clip-rule="evenodd" d="M80.6398 70.0212C80.6216 69.821 81.2039 69.639 81.0037 69.6572C80.8035 69.6717 80.6216 69.0894 80.6398 69.2932C80.658 69.4934 80.0756 69.6717 80.2758 69.6572C80.476 69.639 80.658 70.2214 80.6398 70.0212Z" fill="white"/>
<path fill-rule="evenodd" clip-rule="evenodd" d="M89.084 79.0805C89.0658 78.8803 89.6482 78.6983 89.448 78.7165C89.2478 78.7347 89.0658 78.1523 89.084 78.3525C89.1022 78.5527 88.5199 78.7347 88.72 78.7165C88.9202 78.6983 89.1022 79.2806 89.084 79.0805Z" fill="white"/>
<path fill-rule="evenodd" clip-rule="evenodd" d="M82.2886 60.135C82.2704 59.9348 82.8527 59.7528 82.6525 59.771C82.4523 59.7892 82.2704 59.2069 82.2886 59.4071C82.3068 59.6072 81.7244 59.7892 81.9246 59.771C82.1248 59.7528 82.3068 60.3352 82.2886 60.135Z" fill="white"/>
<path fill-rule="evenodd" clip-rule="evenodd" d="M92.5856 52.106C92.5674 51.9059 93.1497 51.7239 92.9496 51.7421C92.7457 51.7566 92.5674 51.1779 92.5856 51.3781C92.6001 51.5783 92.0214 51.7566 92.2216 51.7421C92.4218 51.7239 92.6001 52.3062 92.5856 52.106Z" fill="white"/>
<path fill-rule="evenodd" clip-rule="evenodd" d="M97.321 43.0414C97.3028 42.8412 97.8851 42.6592 97.6849 42.6774C97.4848 42.6956 97.3028 42.1132 97.321 42.3134C97.3392 42.5136 96.7568 42.6956 96.957 42.6774C97.1572 42.6592 97.3392 43.2416 97.321 43.0414Z" fill="white"/>
<path fill-rule="evenodd" clip-rule="evenodd" d="M90.9367 43.6625C90.9185 43.4623 91.5009 43.2803 91.3007 43.2985C91.1005 43.3167 90.9185 42.7343 90.9367 42.9345C90.9549 43.1347 90.3725 43.3167 90.5727 43.2985C90.7729 43.2803 90.9549 43.8627 90.9367 43.6625Z" fill="white"/>
<path fill-rule="evenodd" clip-rule="evenodd" d="M101.849 28.4244C101.834 28.2206 102.413 28.0422 102.213 28.0568C102.013 28.075 101.834 27.4963 101.849 27.6965C101.867 27.893 101.285 28.075 101.485 28.0568C101.685 28.0422 101.867 28.6246 101.849 28.4244Z" fill="white"/>
<path fill-rule="evenodd" clip-rule="evenodd" d="M96.7022 32.9515C96.684 32.7514 97.2664 32.5694 97.0662 32.5876C96.866 32.6058 96.684 32.0234 96.7022 32.2236C96.7204 32.4238 96.138 32.6058 96.3382 32.5876C96.5384 32.5694 96.7204 33.1517 96.7022 32.9515Z" fill="white"/>
<path fill-rule="evenodd" clip-rule="evenodd" d="M97.7322 22.2446C97.714 22.0444 98.2964 21.8625 98.0962 21.8807C97.896 21.8989 97.714 21.3165 97.7322 21.5167C97.7504 21.7169 97.1681 21.8989 97.3682 21.8807C97.5684 21.8625 97.7504 22.4448 97.7322 22.2446Z" fill="white"/>
<path fill-rule="evenodd" clip-rule="evenodd" d="M103.705 17.098C103.687 16.8978 104.269 16.7159 104.069 16.7341C103.869 16.7522 103.687 16.1699 103.705 16.3701C103.72 16.5703 103.137 16.7522 103.338 16.7341C103.538 16.7159 103.72 17.2982 103.705 17.098Z" fill="white"/>
<path fill-rule="evenodd" clip-rule="evenodd" d="M112.765 28.6293C112.746 28.4291 113.329 28.2471 113.129 28.2653C112.928 28.2835 112.746 27.7011 112.765 27.9013C112.783 28.1015 112.2 28.2835 112.401 28.2653C112.601 28.2471 112.783 28.8295 112.765 28.6293Z" fill="white"/>
<path fill-rule="evenodd" clip-rule="evenodd" d="M117.5 20.393C117.482 20.1928 118.064 20.0108 117.864 20.029C117.664 20.0472 117.482 19.4648 117.5 19.665C117.518 19.8652 116.936 20.0472 117.136 20.029C117.336 20.0108 117.518 20.5931 117.5 20.393Z" fill="white"/>
<path fill-rule="evenodd" clip-rule="evenodd" d="M121.62 25.1273C121.602 24.9271 122.184 24.7488 121.981 24.7633C121.78 24.7815 121.602 24.1992 121.62 24.3994C121.635 24.5996 121.052 24.7815 121.256 24.7633C121.453 24.7488 121.635 25.3275 121.62 25.1273Z" fill="white"/>
<path fill-rule="evenodd" clip-rule="evenodd" d="M130.68 24.0961C130.662 23.8959 131.244 23.7139 131.044 23.7357C130.844 23.7503 130.662 23.1679 130.68 23.3681C130.698 23.5719 130.116 23.7503 130.316 23.7357C130.516 23.7139 130.698 24.2963 130.68 24.0961Z" fill="white"/>
<path fill-rule="evenodd" clip-rule="evenodd" d="M126.971 32.9515C126.956 32.7514 127.535 32.5694 127.338 32.5876C127.134 32.6058 126.956 32.0234 126.971 32.2236C126.989 32.4238 126.407 32.6058 126.61 32.5876C126.811 32.5694 126.989 33.1517 126.971 32.9515Z" fill="white"/>
<path fill-rule="evenodd" clip-rule="evenodd" d="M112.557 33.7791C112.539 33.5753 113.121 33.3969 112.921 33.4115C112.721 33.4297 112.539 32.8473 112.557 33.0511C112.575 33.2513 111.993 33.4297 112.193 33.4115C112.393 33.3969 112.575 33.9793 112.557 33.7791Z" fill="white"/>
<path fill-rule="evenodd" clip-rule="evenodd" d="M102.468 37.6876C102.449 37.4874 103.032 37.3054 102.832 37.3236C102.631 37.3418 102.449 36.7594 102.468 36.9633C102.486 37.1598 101.904 37.3418 102.104 37.3236C102.304 37.3054 102.486 37.8878 102.468 37.6876Z" fill="white"/>
<path fill-rule="evenodd" clip-rule="evenodd" d="M135.415 37.0728C135.397 36.8727 135.979 36.6907 135.779 36.7089C135.579 36.7234 135.397 36.1447 135.415 36.3449C135.433 36.5451 134.851 36.7234 135.051 36.7089C135.251 36.6907 135.433 37.273 135.415 37.0728Z" fill="white"/>
<path fill-rule="evenodd" clip-rule="evenodd" d="M138.917 30.6898C138.898 30.4896 139.481 30.3076 139.281 30.3258C139.08 30.344 138.898 29.7617 138.917 29.9619C138.935 30.1621 138.352 30.344 138.553 30.3258C138.753 30.3076 138.935 30.89 138.917 30.6898Z" fill="white"/>
<path fill-rule="evenodd" clip-rule="evenodd" d="M153.949 42.8383C153.931 42.6381 154.513 42.4561 154.313 42.4743C154.113 42.4925 153.931 41.9101 153.949 42.1103C153.967 42.3105 153.385 42.4925 153.585 42.4743C153.785 42.4561 153.967 43.0385 153.949 42.8383Z" fill="white"/>
<path fill-rule="evenodd" clip-rule="evenodd" d="M147.153 42.6312C147.135 42.431 147.718 42.2491 147.517 42.2673C147.317 42.2855 147.135 41.7031 147.153 41.9033C147.172 42.1035 146.589 42.2855 146.789 42.2673C146.99 42.2491 147.172 42.8314 147.153 42.6312Z" fill="white"/>
<path fill-rule="evenodd" clip-rule="evenodd" d="M137.475 46.7507C137.457 46.5469 138.039 46.3685 137.839 46.3867C137.639 46.4013 137.457 45.8225 137.475 46.0227C137.493 46.2229 136.911 46.4013 137.111 46.3867C137.311 46.3685 137.493 46.9509 137.475 46.7507Z" fill="white"/>
<path fill-rule="evenodd" clip-rule="evenodd" d="M145.505 55.8109C145.49 55.6107 146.069 55.4287 145.869 55.4469C145.668 55.4651 145.49 54.8828 145.505 55.083C145.523 55.2832 144.94 55.4651 145.141 55.4469C145.341 55.4287 145.523 56.0111 145.505 55.8109Z" fill="white"/>
<path fill-rule="evenodd" clip-rule="evenodd" d="M158.066 54.1625C158.047 53.9623 158.63 53.7803 158.43 53.7985C158.229 53.8167 158.047 53.2343 158.066 53.4345C158.084 53.6347 157.501 53.8167 157.702 53.7985C157.902 53.7803 158.084 54.3627 158.066 54.1625Z" fill="white"/>
<path fill-rule="evenodd" clip-rule="evenodd" d="M148.595 62.8109C148.577 62.6107 149.159 62.4324 148.959 62.4469C148.759 62.4651 148.577 61.8828 148.595 62.083C148.613 62.2832 148.031 62.4651 148.231 62.4469C148.431 62.4324 148.613 63.0111 148.595 62.8109Z" fill="white"/>
<path fill-rule="evenodd" clip-rule="evenodd" d="M153.126 65.9008C153.108 65.7006 153.687 65.5186 153.487 65.5368C153.287 65.555 153.108 64.9726 153.126 65.1728C153.141 65.373 152.559 65.555 152.759 65.5368C152.959 65.5186 153.141 66.101 153.126 65.9008Z" fill="white"/>
<path fill-rule="evenodd" clip-rule="evenodd" d="M148.183 74.1371C148.165 73.9369 148.748 73.7549 148.547 73.7731C148.344 73.7913 148.165 73.2089 148.183 73.4091C148.198 73.6093 147.619 73.7913 147.819 73.7731C148.02 73.7549 148.198 74.3373 148.183 74.1371Z" fill="white"/>
<path fill-rule="evenodd" clip-rule="evenodd" d="M142.622 69.1937C142.604 68.9935 143.186 68.8116 142.986 68.8298C142.786 68.848 142.604 68.2656 142.622 68.4658C142.64 68.666 142.058 68.848 142.258 68.8298C142.458 68.8116 142.64 69.3939 142.622 69.1937Z" fill="white"/>
<path fill-rule="evenodd" clip-rule="evenodd" d="M135.623 72.0767C135.604 71.8765 136.187 71.6981 135.987 71.7127C135.786 71.7309 135.604 71.1485 135.623 71.3487C135.637 71.5489 135.058 71.7309 135.259 71.7127C135.455 71.6981 135.637 72.2769 135.623 72.0767Z" fill="white"/>
<path fill-rule="evenodd" clip-rule="evenodd" d="M138.709 60.5453C138.695 60.3451 139.273 60.1631 139.073 60.1813C138.873 60.1995 138.695 59.6171 138.709 59.8173C138.727 60.0175 138.145 60.1995 138.345 60.1813C138.545 60.1631 138.727 60.7455 138.709 60.5453Z" fill="white"/>
<path fill-rule="evenodd" clip-rule="evenodd" d="M121.62 67.3422C121.602 67.142 122.184 66.96 121.981 66.9782C121.78 66.9964 121.602 66.414 121.62 66.6142C121.635 66.8144 121.053 66.9964 121.256 66.9782C121.453 66.96 121.635 67.5424 121.62 67.3422Z" fill="white"/>
<path fill-rule="evenodd" clip-rule="evenodd" d="M125.325 59.516C125.307 59.3158 125.89 59.1338 125.689 59.152C125.489 59.1702 125.307 58.5879 125.325 58.788C125.344 58.9882 124.761 59.1702 124.962 59.152C125.162 59.1338 125.344 59.7162 125.325 59.516Z" fill="white"/>
<path fill-rule="evenodd" clip-rule="evenodd" d="M126.148 43.8653C126.13 43.6688 126.712 43.4868 126.512 43.505C126.312 43.5195 126.13 42.9372 126.148 43.141C126.166 43.3412 125.584 43.5195 125.784 43.505C125.984 43.4868 126.166 44.0691 126.148 43.8653Z" fill="white"/>
<path fill-rule="evenodd" clip-rule="evenodd" d="M111.942 71.8733C111.924 71.6731 112.503 71.4911 112.302 71.5093C112.106 71.5275 111.924 70.9452 111.942 71.1453C111.957 71.3455 111.378 71.5275 111.578 71.5093C111.778 71.4911 111.957 72.0735 111.942 71.8733Z" fill="white"/>
<path fill-rule="evenodd" clip-rule="evenodd" d="M93.8195 70.0212C93.8013 69.821 94.3837 69.639 94.1835 69.6572C93.9833 69.6717 93.8013 69.0894 93.8195 69.2932C93.8377 69.4934 93.2553 69.6717 93.4555 69.6572C93.6557 69.639 93.8377 70.2214 93.8195 70.0212Z" fill="white"/>
<path fill-rule="evenodd" clip-rule="evenodd" d="M100.819 82.7855C100.804 82.5853 101.383 82.4034 101.183 82.4216C100.986 82.4398 100.804 81.8574 100.819 82.0576C100.837 82.2578 100.258 82.4398 100.458 82.4216C100.655 82.4034 100.837 82.9857 100.819 82.7855Z" fill="white"/>
<path fill-rule="evenodd" clip-rule="evenodd" d="M105.146 77.8422C105.128 77.642 105.707 77.4636 105.507 77.4782C105.31 77.4964 105.128 76.914 105.146 77.1142C105.161 77.3144 104.582 77.4964 104.783 77.4782C104.979 77.4636 105.161 78.0424 105.146 77.8422Z" fill="white"/>
<path fill-rule="evenodd" clip-rule="evenodd" d="M109.882 89.1703C109.864 88.9701 110.446 88.7881 110.246 88.8063C110.046 88.8245 109.864 88.2421 109.882 88.4423C109.9 88.6425 109.318 88.8245 109.518 88.8063C109.718 88.7881 109.9 89.3705 109.882 89.1703Z" fill="white"/>
<path fill-rule="evenodd" clip-rule="evenodd" d="M128.208 80.5219C128.19 80.3217 128.772 80.1397 128.572 80.1579C128.372 80.1761 128.19 79.5937 128.208 79.7939C128.226 79.9941 127.644 80.1761 127.844 80.1579C128.045 80.1397 128.226 80.722 128.208 80.5219Z" fill="white"/>
<path fill-rule="evenodd" clip-rule="evenodd" d="M129.031 85.049C129.016 84.8488 129.595 84.6704 129.395 84.685C129.195 84.7032 129.016 84.1208 129.031 84.321C129.049 84.5212 128.467 84.7032 128.667 84.685C128.867 84.6704 129.049 85.2491 129.031 85.049Z" fill="white"/>
<path fill-rule="evenodd" clip-rule="evenodd" d="M137.679 80.7249C137.664 80.5247 138.243 80.3463 138.043 80.3609C137.843 80.3791 137.664 79.7967 137.679 79.9969C137.697 80.1971 137.115 80.3791 137.315 80.3609C137.515 80.3463 137.697 80.9251 137.679 80.7249Z" fill="white"/>
<path fill-rule="evenodd" clip-rule="evenodd" d="M119.764 84.639C119.749 84.4389 120.328 84.2605 120.128 84.2751C119.928 84.2933 119.749 83.7109 119.764 83.9111C119.782 84.1113 119.2 84.2933 119.4 84.2751C119.6 84.2605 119.782 84.8392 119.764 84.639Z" fill="white"/>
<path fill-rule="evenodd" clip-rule="evenodd" d="M85.9938 89.5806C85.9756 89.3804 86.558 89.1984 86.3578 89.2166C86.1576 89.2348 85.9756 88.6524 85.9938 88.8526C86.012 89.0528 85.4296 89.2348 85.6298 89.2166C85.83 89.1984 86.012 89.7808 85.9938 89.5806Z" fill="white"/>
<path fill-rule="evenodd" clip-rule="evenodd" d="M77.1382 85.4635C77.1237 85.2633 77.706 85.0813 77.5022 85.0995C77.302 85.114 77.1237 84.5353 77.1382 84.7355C77.1564 84.9357 76.5741 85.114 76.7742 85.0995C76.9744 85.0813 77.1564 85.6637 77.1382 85.4635Z" fill="white"/>
<path fill-rule="evenodd" clip-rule="evenodd" d="M75.493 74.9595C75.4748 74.7593 76.0572 74.5809 75.857 74.5955C75.6568 74.6137 75.4748 74.0313 75.493 74.2315C75.5112 74.4317 74.9289 74.6137 75.129 74.5955C75.3292 74.5809 75.5112 75.1597 75.493 74.9595Z" fill="white"/>
<path fill-rule="evenodd" clip-rule="evenodd" d="M65.6073 80.5219C65.5928 80.3217 66.1715 80.1397 65.9713 80.1579C65.7711 80.1761 65.5928 79.5937 65.6073 79.7939C65.6255 79.9941 65.0432 80.1761 65.2434 80.1579C65.4436 80.1397 65.6255 80.722 65.6073 80.5219Z" fill="white"/>
<path fill-rule="evenodd" clip-rule="evenodd" d="M81.466 80.5222C81.4296 80.1219 82.5943 79.7579 82.1939 79.7943C81.7936 79.8307 81.4296 78.6659 81.466 79.0663C81.4987 79.4667 80.3376 79.8307 80.738 79.7943C81.1384 79.7579 81.4987 80.9226 81.466 80.5222Z" fill="white"/>
<path fill-rule="evenodd" clip-rule="evenodd" d="M127.797 72.489C127.761 72.0887 128.925 71.7283 128.525 71.7611C128.125 71.7975 127.761 70.6327 127.797 71.0331C127.83 71.4335 126.669 71.7975 127.069 71.7611C127.469 71.7283 127.83 72.8894 127.797 72.489Z" fill="white"/>
<path fill-rule="evenodd" clip-rule="evenodd" d="M155.802 60.9578C155.765 60.5574 156.93 60.1934 156.53 60.2298C156.129 60.2662 155.765 59.1015 155.802 59.5019C155.834 59.9022 154.673 60.2662 155.074 60.2298C155.474 60.1934 155.834 61.3582 155.802 60.9578Z" fill="white"/>
<path fill-rule="evenodd" clip-rule="evenodd" d="M71.3728 57.6629C71.34 57.2625 72.5011 56.8985 72.1007 56.9349C71.7003 56.9713 71.34 55.8066 71.3728 56.2069C71.4092 56.6073 70.2444 56.9713 70.6448 56.9349C71.0452 56.8985 71.4092 58.0632 71.3728 57.6629Z" fill="white"/>
<path fill-rule="evenodd" clip-rule="evenodd" d="M120.477 38.4165C120.445 38.0161 121.606 37.6557 121.205 37.6885C120.805 37.7249 120.445 36.5602 120.477 36.9642C120.514 37.3646 119.353 37.7249 119.749 37.6885C120.15 37.6557 120.514 38.8168 120.477 38.4165Z" fill="white"/>
<path fill-rule="evenodd" clip-rule="evenodd" d="M45.8396 31.5105C45.8032 31.1101 46.9679 30.7498 46.5675 30.7826C46.1671 30.819 45.8032 29.6542 45.8396 30.0546C45.876 30.455 44.7112 30.819 45.1116 30.7826C45.512 30.7498 45.876 31.9109 45.8396 31.5105Z" fill="white"/>
<path fill-rule="evenodd" clip-rule="evenodd" d="M67.2489 27.8367C67.2707 27.7166 67.278 27.6001 67.2707 27.4873C69.7203 26.6247 75.2091 24.7538 77.9462 24.6446C75.0635 24.7611 69.3163 25.9695 66.9031 26.6538C66.823 26.5701 66.7247 26.4936 66.6155 26.4281C68.6211 25.5473 71.522 24.3461 73.8588 24.1387C71.0161 24.3898 67.4709 25.449 65.5163 26.1624C64.479 26.2024 63.5072 26.9086 63.2997 27.8076C63.0849 28.743 63.7911 29.5256 64.8794 29.5511C65.5418 29.5693 66.1897 29.2999 66.6447 28.8777C68.5992 28.066 71.9624 26.7229 74.634 26.4863C72.2427 26.6975 69.2981 27.2762 67.2489 27.8367Z" fill="white"/>
<path fill-rule="evenodd" clip-rule="evenodd" d="M16.3427 32.6827L17.1944 31.5762L23.5495 33.902L22.7014 35.0012L21.2127 34.4298L20.0625 35.9294L20.998 37.2215L20.1717 38.2916L16.3427 32.6827ZM19.4037 35.0231L20.1717 34.0258C20.1717 34.0258 19.5056 33.7819 18.9269 33.5162C18.6539 33.3852 17.8677 33.0248 17.8677 33.0248C17.8677 33.0248 18.3555 33.6363 18.6648 34.0258C18.956 34.4043 19.1489 34.6554 19.4037 35.0231Z" fill="#231F20"/>
<path fill-rule="evenodd" clip-rule="evenodd" d="M22.6978 25.6881L23.9935 24.5962C24.8307 23.8901 25.1546 23.759 25.5623 23.6826C26.2393 23.5479 26.869 23.7918 27.3494 24.3596C27.899 25.0111 28.041 25.8119 27.717 26.5217C27.5787 26.8165 27.4149 27.0531 26.8726 27.5117L26.3266 27.9739L27.8554 29.7866L26.8653 30.6237L22.6978 25.6881ZM24.3648 25.6517L25.646 27.1659L26.1628 26.7291C26.5669 26.3906 26.6433 26.2378 26.6033 25.9211C26.5741 25.7136 26.4795 25.528 26.283 25.295C25.8935 24.8328 25.413 24.7673 24.9945 25.1203L24.3648 25.6517Z" fill="#231F20"/>
<path fill-rule="evenodd" clip-rule="evenodd" d="M31.1785 19.2647L32.6307 18.3911C33.5698 17.827 33.912 17.7505 34.3269 17.7396C35.0148 17.7141 35.5972 18.0563 35.9794 18.6932C36.4198 19.4248 36.4307 20.2365 36.0012 20.8844C35.8156 21.1574 35.6154 21.3649 35.0039 21.7325L34.3924 22.1001L35.6154 24.1347L34.5016 24.8008L31.1785 19.2647ZM32.8273 19.494L33.8501 21.1938L34.4288 20.8444C34.8838 20.575 34.9821 20.4367 34.9966 20.1164C35.0003 19.9089 34.9347 19.7087 34.7782 19.4467C34.4688 18.9298 34.003 18.7879 33.5371 19.0681L32.8273 19.494Z" fill="#231F20"/>
<path fill-rule="evenodd" clip-rule="evenodd" d="M40.4454 14.2379L41.6575 13.6992L43.8414 18.602L45.9488 17.6593L46.1745 18.7367L43.0661 20.1235L40.4454 14.2379Z" fill="#231F20"/>
<path fill-rule="evenodd" clip-rule="evenodd" d="M48.5949 10.8593L50.0727 10.3716L51.4194 11.802C51.6815 12.0896 51.8416 12.2788 51.9872 12.4863C51.9981 12.2861 52.0236 11.9476 52.06 11.6127L52.2929 9.65089L53.7452 9.17407L52.9772 13.4254L53.8071 15.9441L52.5223 16.3663L51.6924 13.8512L48.5949 10.8593Z" fill="#231F20"/>
<path fill-rule="evenodd" clip-rule="evenodd" d="M59.0084 7.78346L60.3224 7.4668L61.8365 13.72L60.5226 14.0403L59.0084 7.78346Z" fill="#231F20"/>
<path fill-rule="evenodd" clip-rule="evenodd" d="M66.4663 6.16795L67.8822 5.935L69.5128 8.27903C69.9423 8.90508 70.299 9.53112 70.4992 9.9679C70.3755 9.4838 70.1971 8.67577 70.1134 8.23899L69.6657 5.64745L70.8814 5.44727L71.9151 11.8024L70.5793 12.0207L69.0979 9.76407C68.6211 9.02519 68.0824 8.19531 67.8968 7.82042C68.0278 8.33363 68.1588 9.08343 68.2571 9.6112L68.7339 12.3192L67.5 12.523L66.4663 6.16795Z" fill="#231F20"/>
<path fill-rule="evenodd" clip-rule="evenodd" d="M81.7499 4.97753L81.1311 5.83652C80.687 5.52714 80.243 5.40339 79.7516 5.44342C79.3731 5.47254 79.06 5.60721 78.8526 5.84016C78.4522 6.28786 78.394 6.99034 78.4704 7.95125C78.5432 8.86483 78.747 9.44356 79.0964 9.74203C79.3549 9.95314 79.7152 10.055 80.1301 10.0223C80.4177 10.0005 80.6434 9.93494 80.8472 9.80754L80.7344 8.34798L79.7552 8.42806L79.5041 7.38708L81.9901 7.19053L82.2303 10.2589C81.6043 10.6957 80.8981 10.9395 80.1411 10.9978C79.1802 11.0742 78.4449 10.8158 77.8771 10.1897C77.3566 9.62555 77.0909 8.95947 77.0145 8.0022C76.9089 6.64092 77.2765 5.64725 78.1246 4.97753C78.5723 4.62447 79.0418 4.44976 79.6497 4.3988C80.4286 4.34056 81.1493 4.53347 81.7499 4.97753Z" fill="#231F20"/>
<path fill-rule="evenodd" clip-rule="evenodd" d="M97.0771 4.27539L98.4748 4.35183L100.138 10.9144L98.7514 10.8343L98.3838 9.28376L96.4984 9.1782L95.956 10.6778L94.6093 10.6014L97.0771 4.27539ZM96.8696 8.12266L98.129 8.19182C98.129 8.19182 97.9543 7.50753 97.8487 6.87785C97.8014 6.57938 97.6558 5.72767 97.6558 5.72767C97.6558 5.72767 97.4265 6.47383 97.2809 6.947C97.1353 7.40562 97.0334 7.70408 96.8696 8.12266Z" fill="#231F20"/>
<path fill-rule="evenodd" clip-rule="evenodd" d="M106.351 5.06421L108.011 5.30444L108.386 8.61665C108.441 9.09347 108.459 9.28274 108.47 9.62124C108.579 9.2973 108.688 9.01703 108.841 8.65305L110.159 5.61382L111.836 5.85405L111.487 12.3111L110.224 12.1291L110.475 8.69309C110.504 8.28543 110.515 8.00517 110.566 7.66667C110.439 8.02337 110.366 8.19808 110.202 8.56934L108.692 11.907L107.563 11.7469L107.137 8.26723C107.097 7.94329 107.039 7.1207 107.039 7.1207C106.985 7.49924 106.915 7.8523 106.832 8.24175L106.133 11.5394L104.841 11.3538L106.351 5.06421Z" fill="#231F20"/>
<path fill-rule="evenodd" clip-rule="evenodd" d="M118.341 7.14258L121.908 7.99429L121.5 8.98432L119.356 8.47111L119.01 9.92339L120.805 10.3492L120.561 11.3793L118.785 10.9534L118.384 12.6314L120.754 13.1956L120.495 14.2766L116.845 13.4067L118.341 7.14258Z" fill="#231F20"/>
<path fill-rule="evenodd" clip-rule="evenodd" d="M127.659 9.625L129.926 10.4003C131.007 10.7643 131.477 11.7215 131.116 12.7953C130.807 13.7089 129.948 14.2585 129.187 14.0219C129.278 14.1566 129.311 14.2293 129.355 14.3604C129.559 14.9173 130.021 17.2249 130.021 17.2249L128.572 16.7372C128.474 16.2531 128.434 16.0529 128.339 15.5433C128.106 14.2403 128.012 13.8872 127.833 13.7125C127.782 13.6652 127.753 13.6361 127.659 13.5924L126.8 16.1366L125.599 15.7326L127.659 9.625ZM128.536 11.0263L127.972 12.6715L128.383 12.8098C128.907 12.9882 129.155 13.0137 129.373 12.919C129.57 12.8317 129.73 12.6388 129.817 12.3876C129.944 12.0091 129.879 11.7033 129.628 11.4922C129.508 11.3903 129.264 11.2702 128.965 11.1683L128.536 11.0263Z" fill="#231F20"/>
<path fill-rule="evenodd" clip-rule="evenodd" d="M137.424 13.2948L138.662 13.8408L136.056 19.7263L134.818 19.1767L137.424 13.2948Z" fill="#231F20"/>
<path fill-rule="evenodd" clip-rule="evenodd" d="M147.852 19.0958L146.906 19.5653C146.746 19.1941 146.509 18.9175 146.196 18.7391C145.818 18.5207 145.344 18.4916 144.97 18.6699C144.569 18.8665 144.202 19.2778 143.827 19.9257C143.386 20.69 143.204 21.1523 143.197 21.5527C143.186 22.0914 143.43 22.5209 143.91 22.8011C144.216 22.9758 144.533 23.0413 144.911 23.0159C144.959 23.0086 145.017 23.0013 145.075 22.9904L145.181 23.995C144.529 24.1005 143.965 23.9877 143.328 23.6201C142.56 23.176 142.109 22.5827 141.956 21.7965C141.796 21.0322 141.963 20.2314 142.436 19.4088C142.84 18.7136 143.281 18.2295 143.816 17.8947C144.715 17.3378 145.796 17.3196 146.695 17.8401C147.248 18.1567 147.699 18.6554 147.852 19.0958Z" fill="#231F20"/>
<path fill-rule="evenodd" clip-rule="evenodd" d="M154.156 23.0684L155.248 23.9456L152.781 30.2497L151.7 29.3761L152.304 27.902L150.83 26.7191L149.519 27.6254L148.464 26.7773L154.156 23.0684ZM151.75 26.0785L152.73 26.8647C152.73 26.8647 152.988 26.2059 153.268 25.6344C153.403 25.3651 153.781 24.5862 153.781 24.5862C153.781 24.5862 153.159 25.0593 152.766 25.3614C152.38 25.6453 152.125 25.831 151.75 26.0785Z" fill="#231F20"/>
<path fill-rule="evenodd" clip-rule="evenodd" d="M161.145 29.5488L162.048 30.6662L160.821 33.2432C160.493 33.9275 160.122 34.5463 159.845 34.9394C160.206 34.5863 160.817 34.0331 161.156 33.7455L163.183 32.0712L163.958 33.0285L158.954 37.0796L158.102 36.024L159.325 33.6181C159.729 32.8392 160.188 31.9584 160.421 31.6126C160.038 31.9802 159.452 32.4679 159.041 32.8137L156.926 34.5718L156.14 33.5999L161.145 29.5488Z" fill="#231F20"/>
<path fill-rule="evenodd" clip-rule="evenodd" d="M21.453 71.7175L20.3465 71.783C20.2773 71.106 20.1281 70.6765 19.8369 70.2907C19.5202 69.8684 19.0543 69.7556 18.7049 70.014C18.4392 70.2142 18.4101 70.4581 18.6139 70.9749L18.9124 71.7247C19.3164 72.7439 19.1199 73.6065 18.3591 74.1816C17.3109 74.9642 15.9896 74.6366 15.0287 73.3554C14.5883 72.7694 14.268 71.9904 14.177 71.2479L15.2726 71.0295C15.3818 71.6993 15.531 72.2343 15.9205 72.7548C16.3645 73.3481 16.845 73.4755 17.3036 73.1297C17.6348 72.8786 17.6894 72.5037 17.4637 71.9577L17.1908 71.2698C16.9469 70.651 16.9069 70.1815 17.0816 69.7629C17.2053 69.4499 17.4164 69.1769 17.704 68.9585C18.6467 68.2524 19.866 68.5181 20.6813 69.61C21.1545 70.2397 21.442 71.0186 21.453 71.7175Z" fill="#231F20"/>
<path fill-rule="evenodd" clip-rule="evenodd" d="M25.5623 75.2952L26.8471 76.4017C27.677 77.1114 27.859 77.4135 28.001 77.803C28.2375 78.4472 28.0992 79.1097 27.6188 79.6738C27.0619 80.3181 26.2939 80.5874 25.5404 80.3836C25.2274 80.2963 24.969 80.1689 24.4267 79.7066L23.8843 79.2407L22.3411 81.0424L21.3547 80.198L25.5623 75.2952ZM25.8644 76.9367L24.5723 78.44L25.0855 78.8804C25.4858 79.2225 25.6496 79.2771 25.9554 79.1898C26.1556 79.1279 26.323 79.0005 26.5232 78.7712C26.9163 78.3126 26.9054 77.8285 26.4904 77.4718L25.8644 76.9367Z" fill="#231F20"/>
<path fill-rule="evenodd" clip-rule="evenodd" d="M34.4398 81.9688L35.6336 82.6967L34.003 89.2666L32.8164 88.5422L33.2241 86.999L31.6117 86.0162L30.4287 87.0827L29.2749 86.3802L34.4398 81.9688ZM32.4415 85.2628L33.5153 85.9179C33.5153 85.9179 33.6863 85.23 33.8902 84.6294C33.9921 84.3419 34.2651 83.5193 34.2651 83.5193C34.2651 83.5193 33.7082 84.0726 33.3551 84.422C33.013 84.7532 32.78 84.9716 32.4415 85.2628Z" fill="#231F20"/>
<path fill-rule="evenodd" clip-rule="evenodd" d="M45.5229 88.117L44.6276 88.6775C44.431 88.3245 44.1689 88.0733 43.8414 87.9241C43.441 87.7458 42.9678 87.7676 42.6147 87.9823C42.2326 88.2189 41.9123 88.663 41.6029 89.3473C41.2425 90.148 41.1079 90.6248 41.1406 91.0289C41.1807 91.5639 41.4682 91.9679 41.9741 92.1972C42.2944 92.3428 42.6147 92.3756 42.9896 92.3101C43.037 92.2991 43.0952 92.2846 43.1498 92.27L43.3573 93.2564C42.7203 93.4275 42.1452 93.3729 41.4791 93.0708C40.6675 92.7068 40.1615 92.1608 39.9286 91.3965C39.6956 90.6503 39.7793 89.835 40.1652 88.9724C40.4964 88.2371 40.8858 87.713 41.3845 87.3272C42.2253 86.6793 43.299 86.5555 44.2454 86.9814C44.8277 87.2435 45.3264 87.6912 45.5229 88.117Z" fill="#231F20"/>
<path fill-rule="evenodd" clip-rule="evenodd" d="M50.695 89.6934L54.1747 90.8545L53.6833 91.8044L51.5941 91.1056L51.1209 92.5215L52.868 93.1039L52.5331 94.1048L50.8042 93.5297L50.2583 95.164L52.5695 95.932L52.2165 96.9875L48.6604 95.8009L50.695 89.6934Z" fill="#231F20"/>
<path fill-rule="evenodd" clip-rule="evenodd" d="M66.6047 93.9414L71.1799 94.7167L70.7904 95.7395L69.2726 95.481L68.3772 100.77L67.0815 100.551L67.9769 95.2627L66.4227 95.0006L66.6047 93.9414Z" fill="#231F20"/>
<path fill-rule="evenodd" clip-rule="evenodd" d="M76.3593 95.3574L80.0137 95.6923L79.7516 96.7333L77.5532 96.5294L77.4185 98.0145L79.2529 98.1855L79.1583 99.2374L77.3384 99.07L77.1819 100.784L79.6096 101.01L79.5077 102.117L75.7697 101.771L76.3593 95.3574Z" fill="#231F20"/>
<path fill-rule="evenodd" clip-rule="evenodd" d="M89.8193 96.449L89.2187 97.3189C88.8984 97.0714 88.5599 96.944 88.1996 96.9368C87.7628 96.9295 87.3333 97.1333 87.0931 97.4718C86.8383 97.8394 86.7146 98.3745 86.7036 99.1243C86.6854 100.005 86.751 100.496 86.9402 100.853C87.1914 101.33 87.6136 101.588 88.1668 101.599C88.5199 101.607 88.8293 101.508 89.1459 101.301C89.186 101.275 89.2333 101.239 89.277 101.203L89.8557 102.029C89.3389 102.436 88.7892 102.611 88.0576 102.6C87.1659 102.582 86.4889 102.284 85.9684 101.669C85.4625 101.075 85.2186 100.293 85.2332 99.3499C85.2477 98.5419 85.4006 97.9049 85.7063 97.3553C86.2232 96.4272 87.1586 95.8885 88.1996 95.9067C88.8366 95.9213 89.4735 96.136 89.8193 96.449Z" fill="#231F20"/>
<path fill-rule="evenodd" clip-rule="evenodd" d="M95.2789 95.9794L96.5601 95.903L96.7057 98.3999L98.5548 98.2943L98.4128 95.7974L99.7231 95.7246L100.091 102.152L98.7804 102.225L98.6166 99.3608L96.7676 99.4663L96.9278 102.331L95.6429 102.404L95.2789 95.9794Z" fill="#231F20"/>
<path fill-rule="evenodd" clip-rule="evenodd" d="M105.656 95.1419L107.079 94.9417L108.655 97.3185C109.074 97.9519 109.416 98.5888 109.609 99.0292C109.492 98.5379 109.332 97.7298 109.259 97.2894L108.866 94.6906L110.086 94.5195L110.985 100.893L109.645 101.082L108.211 98.7927C107.749 98.0465 107.228 97.2021 107.054 96.8235C107.174 97.3404 107.287 98.0902 107.37 98.6216L107.793 101.341L106.555 101.515L105.656 95.1419Z" fill="#231F20"/>
<path fill-rule="evenodd" clip-rule="evenodd" d="M118.21 92.8245C119.88 92.435 121.191 93.4141 121.649 95.3796C121.981 96.7955 121.729 97.9675 120.943 98.6809C120.612 98.9794 120.281 99.1395 119.757 99.2633C118.81 99.4853 118.137 99.3652 117.511 98.8556C116.892 98.3533 116.463 97.6145 116.248 96.6936C115.935 95.3432 116.204 94.1385 116.983 93.4323C117.307 93.1484 117.74 92.9337 118.21 92.8245ZM118.421 93.8036C117.995 93.9019 117.667 94.2076 117.573 94.5789C117.453 95.0375 117.478 95.6089 117.656 96.366C117.908 97.4507 118.253 98.0731 118.69 98.266C118.919 98.3643 119.189 98.3788 119.487 98.3097C120.361 98.1058 120.576 97.3524 120.204 95.7545C120.055 95.1139 119.895 94.6662 119.706 94.3423C119.531 94.0475 119.087 93.6471 118.421 93.8036Z" fill="#231F20"/>
<path fill-rule="evenodd" clip-rule="evenodd" d="M126.29 90.7055L127.546 90.2833L129.242 95.3718L131.433 94.6402L131.553 95.7357L128.328 96.8095L126.29 90.7055Z" fill="#231F20"/>
<path fill-rule="evenodd" clip-rule="evenodd" d="M136.875 86.5372C138.432 85.8238 139.917 86.519 140.755 88.3571C141.362 89.682 141.348 90.8795 140.722 91.7348C140.456 92.0915 140.165 92.3172 139.674 92.5428C138.789 92.9469 138.105 92.9651 137.391 92.5865C136.682 92.2189 136.118 91.5819 135.724 90.7229C135.146 89.4563 135.171 88.2224 135.794 87.378C136.056 87.0358 136.438 86.7374 136.875 86.5372ZM137.275 87.4544C136.878 87.6364 136.616 88.0004 136.602 88.3826C136.572 88.8557 136.714 89.4126 137.038 90.1187C137.501 91.1306 137.963 91.6729 138.429 91.7785C138.673 91.8258 138.942 91.7858 139.219 91.6584C140.038 91.2835 140.096 90.5046 139.415 89.0122C139.142 88.4117 138.895 88.0077 138.644 87.7238C138.414 87.4726 137.897 87.1669 137.275 87.4544Z" fill="#231F20"/>
<path fill-rule="evenodd" clip-rule="evenodd" d="M148.395 80.9586L148.249 82.0032C147.714 81.9377 147.259 82.0396 146.844 82.3017C146.524 82.5055 146.313 82.7712 146.236 83.0696C146.094 83.6557 146.371 84.2999 146.888 85.1152C147.376 85.8905 147.827 86.3054 148.275 86.4073C148.602 86.4729 148.97 86.3964 149.323 86.1708C149.563 86.0179 149.734 85.8541 149.854 85.6466L149.072 84.4091L148.242 84.9369L147.536 84.1325L149.64 82.8003L151.288 85.3955C150.939 86.0761 150.429 86.6221 149.789 87.0261C148.973 87.543 148.202 87.6594 147.408 87.3719C146.688 87.1171 146.138 86.6549 145.625 85.8395C144.897 84.6894 144.755 83.6375 145.192 82.6474C145.421 82.1306 145.752 81.7557 146.269 81.4245C146.928 81.0095 147.656 80.8457 148.395 80.9586Z" fill="#231F20"/>
<path fill-rule="evenodd" clip-rule="evenodd" d="M151.892 77.5513L153.05 76.5103L154.859 77.2747C155.212 77.4275 155.434 77.5404 155.652 77.6678C155.583 77.4821 155.467 77.1618 155.365 76.8415L154.79 74.9525L155.925 73.9297L156.941 78.13L158.713 80.0955L157.709 81.0018L155.936 79.0363L151.892 77.5513Z" fill="#231F20"/>
<path fill-rule="evenodd" clip-rule="evenodd" d="M157.541 72.3497L158.746 70.9375L159.019 71.2796L158.619 71.7492L160.253 73.1396L159.911 73.54L158.28 72.1496L157.869 72.6264L157.541 72.3497Z" fill="#231F20"/>
<path fill-rule="evenodd" clip-rule="evenodd" d="M159.234 70.336L159.627 69.7936L160.868 70.285C161.047 70.3542 161.116 70.3833 161.236 70.4415C161.145 70.3432 161.065 70.2523 160.966 70.1285L160.14 69.0948L160.541 68.5488L162.754 69.881L162.451 70.2959L161.287 69.5607C161.148 69.4733 161.05 69.4187 160.941 69.335C161.043 69.4479 161.094 69.5061 161.192 69.6335L162.084 70.7946L161.818 71.1622L160.511 70.6599C160.388 70.6126 160.086 70.4779 160.086 70.4779C160.209 70.5689 160.322 70.6599 160.442 70.7618L161.476 71.6281L161.167 72.0467L159.234 70.336Z" fill="#231F20"/>
</g>
<defs>
<clipPath id="clip0_1189_5808">
<rect width="181" height="105.525" fill="white" transform="translate(0 0.738281)"/>
</clipPath>
</defs>
</svg>
