<svg width="37" height="55" viewBox="0 0 37 55" fill="none" xmlns="http://www.w3.org/2000/svg">
<g clip-path="url(#clip0_1189_5771)">
<path fill-rule="evenodd" clip-rule="evenodd" d="M-76.7443 21.5386H-73.8455C-73.7357 22.3669 -73.408 22.9185 -72.9159 23.3051C-72.3685 23.6908 -71.6576 23.8576 -70.6191 23.8576C-69.7984 23.8576 -69.142 23.6918 -68.7045 23.416C-68.3213 23.0843 -68.1026 22.6436 -68.1026 22.0911C-68.1026 21.2079 -69.3054 20.4905 -71.7666 19.939C-71.821 19.939 -71.821 19.884 -71.8764 19.884C-71.9309 19.884 -72.0398 19.884 -72.1497 19.829C-73.4624 19.5523 -74.4465 19.2216 -74.994 18.8349C-75.486 18.5592 -75.8691 18.1175 -76.1424 17.566C-76.3901 16.9521 -76.5201 16.2964 -76.5255 15.6337C-76.5255 14.2539 -76.0334 13.1498 -75.1038 12.4324C-74.1742 11.715 -72.8605 11.3284 -71.0557 11.3284C-69.4144 11.3284 -68.157 11.715 -67.2274 12.4874C-66.2978 13.3157 -65.8057 14.4197 -65.7503 15.8545H-68.5411C-68.5955 15.1371 -68.8153 14.6405 -69.3064 14.2538C-69.7984 13.9222 -70.4548 13.7014 -71.3299 13.7014C-72.0962 13.7014 -72.6981 13.8672 -73.0802 14.143C-73.289 14.2924 -73.4581 14.4915 -73.5726 14.7226C-73.6871 14.9536 -73.7434 15.2096 -73.7366 15.4678C-73.7366 16.1852 -72.9159 16.7927 -71.3299 17.1234C-70.8924 17.2343 -70.5102 17.3442 -70.2914 17.4001C-69.2528 17.6759 -68.5411 17.8418 -68.1035 18.0076C-67.6659 18.1734 -67.2828 18.3393 -66.9551 18.5042C-66.4076 18.8349 -65.9701 19.2216 -65.6968 19.7731C-65.3682 20.3256 -65.2592 20.9321 -65.2592 21.7054C-65.2592 23.1961 -65.7513 24.3002 -66.7354 25.1275C-67.7204 25.9558 -69.0876 26.3415 -70.8924 26.3415C-72.6971 26.3415 -74.0643 25.9558 -75.1038 25.1275C-76.0888 24.2983 -76.6353 23.0834 -76.7443 21.5386ZM-55.8513 20.7653C-55.8513 19.7172 -56.0701 18.8889 -56.4532 18.3374C-56.8363 17.7858 -57.4373 17.5091 -58.2035 17.5091C-58.9143 17.5091 -59.4608 17.7849 -59.844 18.3374C-60.2815 18.8899 -60.4459 19.7172 -60.4459 20.7653C-60.4459 21.7595 -60.2271 22.5318 -59.844 23.0834C-59.4064 23.6359 -58.8599 23.9116 -58.0936 23.9116C-57.4373 23.9116 -56.8898 23.6359 -56.4522 23.0284C-56.0701 22.4769 -55.8513 21.7595 -55.8513 20.7653ZM-63.1812 30.1493V15.4669H-60.5013V16.8467C-60.1181 16.2392 -59.6806 15.7976 -59.1331 15.5218C-58.6411 15.2461 -58.0946 15.0802 -57.3828 15.0802C-56.1255 15.0802 -55.086 15.5768 -54.2653 16.6259C-53.5 17.674 -53.1169 18.9998 -53.1169 20.6554C-53.1169 22.311 -53.5 23.6908 -54.2653 24.7399C-55.086 25.789 -56.1255 26.3405 -57.3828 26.3405C-58.0392 26.3405 -58.6411 26.1756 -59.1331 25.8989C-59.6806 25.6231 -60.1172 25.1815 -60.4459 24.6849V30.1493H-63.1812ZM-45.2405 24.6849C-45.6236 25.1815 -46.0621 25.6231 -46.664 25.8989C-47.2105 26.1756 -47.8669 26.3405 -48.6322 26.3405C-49.6716 26.3405 -50.4369 26.0648 -50.9853 25.4573C-51.5318 24.9048 -51.8051 24.0775 -51.8051 22.9734C-51.8051 21.9793 -51.5318 21.2619 -50.9853 20.7104C-50.4369 20.2138 -49.5073 19.8271 -48.249 19.6613C-47.9758 19.6063 -47.5946 19.5514 -47.1006 19.4964C-45.9522 19.3306 -45.3513 18.9998 -45.3513 18.4473C-45.3513 18.0057 -45.4611 17.7299 -45.7344 17.5641C-46.0076 17.3433 -46.4443 17.2883 -47.0471 17.2883C-47.6471 17.2883 -48.0303 17.3982 -48.358 17.6191C-48.497 17.7314 -48.6088 17.8744 -48.6848 18.037C-48.7608 18.1995 -48.799 18.3775 -48.7965 18.5573V18.7221H-51.421V18.5573C-51.421 17.4532 -51.0398 16.6249 -50.2726 16.0184C-49.5064 15.356 -48.4678 15.0802 -47.1551 15.0802C-45.679 15.0802 -44.5841 15.3001 -43.8188 15.8526C-43.0526 16.3492 -42.6159 17.0666 -42.6159 18.0607V24.0225C-42.6159 24.4641 -42.6159 24.7949 -42.5061 25.0166C-42.3981 25.2374 -42.2882 25.4023 -42.0694 25.5132V25.9548H-44.9672C-45.0771 25.789 -45.1325 25.5682 -45.1851 25.3474C-45.2405 25.1266 -45.2405 24.9058 -45.2405 24.6849ZM-45.2959 20.7653C-45.7888 20.9862 -46.2809 21.152 -46.8818 21.3178C-47.4837 21.4278 -47.757 21.4827 -47.8115 21.4827C-48.3026 21.6486 -48.6312 21.8144 -48.8509 22.0352C-49.0143 22.256 -49.1242 22.5318 -49.1242 22.9185C-49.1242 23.3051 -49.0143 23.6359 -48.7411 23.8567C-48.5232 24.0775 -48.1392 24.1874 -47.7561 24.1874C-46.9917 24.1874 -46.3898 23.9666 -45.9513 23.525C-45.5128 23.1383 -45.2949 22.5318 -45.2949 21.7585L-45.2959 20.7653ZM-33.9197 21.9793H-31.1299C-31.2952 23.3601 -31.7318 24.4082 -32.6061 25.1806C-33.4277 25.9539 -34.5207 26.3396 -35.8888 26.3396C-37.4204 26.3396 -38.5688 25.843 -39.443 24.8498C-40.3172 23.8567 -40.7557 22.4759 -40.7557 20.7094C-40.7557 18.943 -40.3172 17.5631 -39.3876 16.569C-38.5124 15.5759 -37.3096 15.0793 -35.778 15.0793C-34.4118 15.0793 -33.3723 15.41 -32.5516 16.1274C-31.73 16.8998 -31.2933 17.8939 -31.1835 19.1638H-33.9179C-34.0277 18.6113 -34.1911 18.1706 -34.5198 17.8948C-34.8484 17.5631 -35.2315 17.4532 -35.778 17.4532C-36.4344 17.4532 -36.9809 17.729 -37.3096 18.2815C-37.6382 18.834 -37.8025 19.6613 -37.8025 20.7104C-37.8025 21.7595 -37.6373 22.5318 -37.3096 23.0834C-36.9264 23.6359 -36.4344 23.9116 -35.778 23.9116C-35.2315 23.9116 -34.8484 23.7458 -34.5198 23.4151C-34.1911 23.0843 -33.9742 22.6418 -33.9197 21.9793ZM-22.9812 22.7526H-20.1914C-20.4646 23.8567 -21.0112 24.7399 -21.8863 25.4014C-22.7634 26.0089 -23.801 26.3396 -25.0038 26.3396C-26.5354 26.3396 -27.6838 25.788 -28.6134 24.7939C-29.4904 23.7458 -29.9261 22.366 -29.9261 20.6545C-29.9261 18.888 -29.4895 17.5631 -28.6134 16.569C-27.7382 15.5759 -26.5354 15.0793 -25.0592 15.0793C-23.4732 15.0793 -22.215 15.5759 -21.3398 16.5141C-20.4647 17.5082 -20.0271 18.888 -20.0271 20.7094V21.1511C-20.0271 21.2619 -20.0825 21.3719 -20.0825 21.4278H-27.0293C-26.9739 22.256 -26.8095 22.9185 -26.4274 23.3042C-26.0987 23.7458 -25.5503 23.9666 -24.8958 23.9666C-24.4029 23.9666 -24.0188 23.8567 -23.6911 23.6359C-23.3624 23.47 -23.1446 23.1942 -22.9812 22.7526ZM-27.0293 19.6063H-22.9267C-22.9267 18.8889 -23.1446 18.3364 -23.4732 17.9498C-23.8564 17.6191 -24.3484 17.3982 -25.0048 17.3982C-25.6067 17.3982 -26.0997 17.6191 -26.4283 18.0057C-26.756 18.3364 -26.9739 18.8889 -27.0293 19.6063ZM-17.949 25.9548V11.7131H-15.0513V23.3601H-8.15891V25.9548H-17.949ZM-0.829941 24.6849C-1.21306 25.1815 -1.64968 25.6231 -2.19619 25.8989C-2.83086 26.1939 -3.52197 26.3446 -4.2207 26.3405C-5.20572 26.3405 -5.97009 26.0648 -6.51659 25.4573C-7.06497 24.9048 -7.33823 24.0775 -7.33823 22.9734C-7.33823 21.9793 -7.06497 21.2619 -6.51659 20.7104C-5.97009 20.2138 -5.09492 19.8271 -3.83665 19.6613C-3.56339 19.6063 -3.18027 19.5514 -2.68823 19.4964C-1.53982 19.3306 -0.936981 18.9998 -0.936981 18.4473C-0.936981 18.0057 -1.04684 17.7299 -1.32009 17.5641C-1.59335 17.3433 -2.03187 17.2883 -2.63284 17.2883C-3.17934 17.2883 -3.61786 17.3982 -3.94557 17.6191C-4.08432 17.7316 -4.19578 17.8746 -4.27145 18.0372C-4.34712 18.1998 -4.38499 18.3776 -4.38221 18.5573V18.7221H-7.00862V18.5573C-7.00862 17.4532 -6.62551 16.6249 -5.86021 16.0184C-5.09398 15.356 -4.05355 15.0802 -2.74269 15.0802C-1.26469 15.0802 -0.171684 15.3001 0.648071 15.8526C1.4143 16.3492 1.79836 17.0666 1.79836 18.0607V24.0225C1.79836 24.4641 1.85188 24.7949 1.90634 25.0166C2.0162 25.2374 2.1796 25.4023 2.39933 25.5132V25.9548H-0.55481C-0.610214 25.789 -0.718193 25.5682 -0.772652 25.3474C-0.829933 25.1266 -0.829941 24.9058 -0.829941 24.6849ZM-0.88533 20.7653C-1.32197 20.9862 -1.87036 21.152 -2.47133 21.3178C-3.07323 21.4278 -3.34648 21.4827 -3.34648 21.4827C-3.83759 21.6486 -4.22163 21.8144 -4.38409 22.0352C-4.60381 22.256 -4.71275 22.5318 -4.71275 22.9185C-4.71275 23.3051 -4.54935 23.6359 -4.32962 23.8567C-4.05637 24.0775 -3.72772 24.1874 -3.29202 24.1874C-2.58025 24.1874 -1.97928 23.9666 -1.54263 23.525C-1.10412 23.1383 -0.886276 22.5318 -0.886276 21.7585V20.7653H-0.88533ZM4.25762 11.7131H6.99203V16.7358C7.32068 16.1843 7.75639 15.7976 8.30477 15.5218C8.84139 15.2274 9.44335 15.0754 10.0541 15.0802C11.3124 15.0802 12.35 15.6318 13.1717 16.6809C13.936 17.729 14.3745 19.0538 14.3745 20.7653C14.3745 22.4219 13.936 23.7467 13.1717 24.7949C12.35 25.789 11.3124 26.3405 10.0541 26.3405C9.34237 26.3405 8.79588 26.1756 8.30477 25.8989C7.73325 25.5726 7.26035 25.0957 6.93663 24.5191V25.9548H4.25669L4.25762 11.7131ZM11.5857 20.6554C11.5857 19.6613 11.3678 18.8889 10.9838 18.3374C10.5997 17.7858 10.0541 17.5091 9.34238 17.5091C8.57802 17.5091 8.02963 17.7849 7.59299 18.3374C7.20988 18.8899 6.99109 19.6613 6.99109 20.6554C6.99109 21.7035 7.20894 22.5318 7.59299 23.0834C7.9761 23.6359 8.52262 23.9116 9.28791 23.9116C9.99968 23.9116 10.6006 23.6359 10.9847 23.0834C11.3678 22.5318 11.5857 21.7035 11.5857 20.6554ZM15.6873 22.5318H18.4771C18.4771 23.0834 18.6968 23.47 19.0255 23.7458C19.4067 24.0216 19.9006 24.1324 20.665 24.1324C21.1579 24.1324 21.5946 24.0216 21.9232 23.8567C22.0577 23.7786 22.1691 23.6658 22.2462 23.5299C22.3232 23.394 22.3631 23.2399 22.3618 23.0834C22.3618 22.5868 21.8134 22.2551 20.665 21.9793C20.2283 21.9244 19.8452 21.8144 19.572 21.7595C18.2592 21.3728 17.2742 20.9871 16.7822 20.4896C16.2357 20.048 15.9624 19.3855 15.9624 18.5573C15.9624 17.5091 16.3436 16.6249 17.1108 16.0184C17.9306 15.411 18.97 15.0802 20.2837 15.0802C21.65 15.0802 22.743 15.411 23.5646 16.0184C24.329 16.6259 24.7675 17.5091 24.8229 18.6681H22.0885C22.0885 18.2265 21.9232 17.8399 21.5955 17.6191C21.2669 17.3423 20.8312 17.2324 20.2847 17.2324C19.7363 17.2324 19.355 17.3423 19.0799 17.5091C18.8621 17.674 18.6987 17.8958 18.6987 18.2265C18.6987 18.6132 19.4086 18.9998 20.7767 19.3306C21.1054 19.3855 21.3786 19.4405 21.5411 19.4964C22.9646 19.8281 23.8942 20.2138 24.3853 20.7104C24.8783 21.152 25.1516 21.8144 25.1516 22.6427C25.1516 23.8576 24.7684 24.7399 23.8933 25.4023C23.0717 26.0098 21.8688 26.3405 20.2837 26.3405C18.8057 26.3405 17.7127 26.0089 16.893 25.3474C16.0713 24.6849 15.6882 23.8017 15.6882 22.6427L15.6873 22.5318Z" fill="white"/>
<path fill-rule="evenodd" clip-rule="evenodd" d="M-60.2815 43.3398V29.0981H-56.0156L-53.2258 39.9187L-50.4905 29.0981H-46.1691V43.3388H-48.85V31.8577L-51.7478 43.3388H-54.6465L-57.5453 31.8577V43.3388L-60.2815 43.3398ZM-37.5838 40.1395H-34.794C-35.0672 41.2426 -35.6691 42.1258 -36.4908 42.7323C-37.3659 43.3947 -38.4054 43.6705 -39.6618 43.6705C-41.1398 43.6705 -42.3427 43.1749 -43.2178 42.1808C-44.093 41.1336 -44.5306 39.7528 -44.5306 37.9863C-44.5306 36.2739 -44.092 34.895 -43.2178 33.9009C-42.3981 32.9068 -41.1933 32.4111 -39.6618 32.4111C-38.0767 32.4111 -36.8194 32.9068 -35.9978 33.9009C-35.1226 34.895 -34.6869 36.2739 -34.6869 38.0953V38.8137H-41.6318C-41.6318 39.641 -41.414 40.2484 -41.0853 40.6901C-40.7022 41.0767 -40.1557 41.2975 -39.4993 41.2975C-39.0082 41.2975 -38.6242 41.1885 -38.3509 41.0218C-38.0223 40.8578 -37.749 40.5261 -37.5838 40.1395ZM-41.6309 36.9373H-37.5284C-37.5838 36.2748 -37.7481 35.7233 -38.1321 35.3366C-38.4589 34.95 -38.9519 34.7851 -39.6083 34.7851C-40.2102 34.7851 -40.7013 34.95 -41.0299 35.3366C-41.413 35.7233 -41.5764 36.2748 -41.6309 36.9373ZM-23.801 29.0981V43.3388H-26.4274V41.904C-26.864 42.5115 -27.3025 42.9531 -27.7936 43.2289C-28.2847 43.5606 -28.8885 43.6696 -29.5984 43.6696C-30.8567 43.6696 -31.8962 43.1739 -32.7159 42.1239C-33.4822 41.1317 -33.9188 39.7509 -33.9188 38.0944C-33.9188 36.4397 -33.4822 35.059 -32.7159 34.0108C-31.8962 32.9617 -30.8567 32.4652 -29.5984 32.4652C-28.942 32.4652 -28.3401 32.5741 -27.7936 32.8499C-27.3025 33.1816 -26.864 33.5683 -26.5354 34.1198V29.0962H-23.801V29.0981ZM-31.0745 37.9863C-31.0745 39.0894 -30.9111 39.8627 -30.528 40.4143C-30.0914 40.9658 -29.543 41.2416 -28.7786 41.2416C-28.0669 41.2416 -27.4659 40.9658 -27.0819 40.4143C-26.7006 39.8627 -26.5354 39.0894 -26.5354 37.9863C-26.5354 36.9922 -26.7006 36.2189 -27.1373 35.7223C-27.5204 35.1708 -28.1223 34.895 -28.8341 34.895C-29.5439 34.895 -30.0923 35.1708 -30.4736 35.7223C-30.9111 36.2748 -31.0745 37.0481 -31.0745 37.9863ZM-21.8328 31.6378V29.0981H-18.9885V31.6378H-21.8328ZM-21.8328 43.3398V32.7987H-18.9885V43.3398H-21.8328ZM-10.7834 39.3652H-8.04904C-8.15891 40.6901 -8.65095 41.7401 -9.47259 42.5115C-10.3477 43.2848 -11.4408 43.6705 -12.7535 43.6705C-14.285 43.6705 -15.4334 43.1749 -16.3077 42.1808C-17.1847 41.1885 -17.6204 39.8078 -17.6204 38.0422C-17.6204 36.2748 -17.1837 34.949 -16.3077 33.9568C-15.4325 32.9077 -14.1751 32.4111 -12.6436 32.4111C-11.3328 32.4111 -10.2379 32.7978 -9.41718 33.5142C-8.59742 34.2326 -8.15891 35.2267 -8.04904 36.5497H-10.8388C-10.8847 36.0632 -11.0752 35.602 -11.3854 35.2267C-11.74 34.9342 -12.1856 34.7774 -12.6436 34.7841C-13.3554 34.7841 -13.8484 35.0599 -14.1751 35.6115C-14.5583 36.1649 -14.7235 36.9922 -14.7235 38.0953C-14.7235 39.0894 -14.5038 39.8627 -14.1751 40.4143C-13.7939 40.9658 -13.3 41.2416 -12.6436 41.2416C-12.1525 41.2416 -11.714 41.0767 -11.3854 40.8009C-11.0586 40.4702 -10.8933 39.9727 -10.7834 39.3652ZM-0.283432 42.0159C-0.612076 42.5674 -1.04779 43.01 -1.64969 43.2858C-2.1962 43.5615 -2.85255 43.7264 -3.61974 43.7264C-4.65733 43.7264 -5.42451 43.3947 -5.97101 42.8432C-6.51752 42.2357 -6.79076 41.4084 -6.79076 40.3593C-6.79076 39.3652 -6.51752 38.5938 -5.97101 38.0953C-5.42451 37.5438 -4.49488 37.2121 -3.2366 36.9922C-2.96335 36.9922 -2.58023 36.9363 -2.1436 36.8813C-0.938843 36.7164 -0.336945 36.3298 -0.336945 35.8342C-0.336945 35.3916 -0.502213 35.1158 -0.720062 34.896C-0.993317 34.7292 -1.43182 34.6202 -2.03279 34.6202C-2.63376 34.6202 -3.0723 34.7292 -3.34555 34.95C-3.67419 35.1717 -3.78218 35.5034 -3.78218 35.9441V36.1109H-6.40859V35.891C-6.40859 34.8419 -6.02547 33.9587 -5.2583 33.3512C-4.54841 32.7438 -3.45352 32.413 -2.14267 32.413C-0.719131 32.413 0.42836 32.6888 1.19553 33.1844C1.95988 33.736 2.34393 34.4543 2.34393 35.3925V41.4103C2.34393 41.851 2.39932 42.1267 2.50731 42.3485C2.56271 42.5684 2.72705 42.7333 2.94585 42.8441V43.3398H0.044281C-0.0637054 43.1749 -0.119095 42.955 -0.173553 42.7323C-0.228958 42.5125 -0.228973 42.2916 -0.283432 42.0159ZM-0.283432 38.1512C-0.78952 38.383 -1.3223 38.5502 -1.86942 38.6488C-2.47131 38.8137 -2.79716 38.8686 -2.79716 38.8686C-3.29015 39.0335 -3.61879 39.2003 -3.83664 39.4202C-4.00003 39.587 -4.10989 39.9177 -4.10989 40.3034C-4.10989 40.6901 -4.00003 40.9658 -3.72678 41.1885C-3.50893 41.4084 -3.18027 41.5733 -2.74364 41.5733C-1.9774 41.5733 -1.3755 41.3534 -0.936981 40.9109C-0.500336 40.4702 -0.282486 39.9187 -0.282486 39.1453V38.1512H-0.283432ZM4.3121 43.3398V29.0981H7.15448V43.3388L4.3121 43.3398ZM-89.4341 5.5293H-131.11C-131.384 5.69514 -131.712 6.0818 -131.875 6.57838H-88.6678C-88.8866 6.0818 -89.1599 5.69514 -89.4341 5.5293ZM-117.601 43.8932C-116.725 44.3339 -115.741 44.7205 -114.702 44.9404H-132.204V43.8932H-117.601ZM-121.266 41.6292C-120.774 42.0159 -120.282 42.4025 -119.789 42.6783H-132.204V41.6292H-121.266ZM-123.617 39.3652C-123.288 39.8078 -122.906 40.1385 -122.633 40.4143H-132.204V39.3652H-123.617ZM-125.258 37.104C-125.039 37.5447 -124.821 37.8755 -124.547 38.1512H-132.204V37.104H-125.258ZM-126.516 34.84C-126.352 35.2807 -126.133 35.6115 -125.969 35.9431H-132.204V34.84H-126.516ZM-127.336 32.576C-127.281 33.0186 -127.172 33.3493 -127.008 33.681H-132.203V32.576H-127.336ZM-127.883 30.313C-127.828 30.7555 -127.774 31.0863 -127.665 31.418H-132.204V30.313H-127.883ZM-128.103 28.0509C-128.103 28.4915 -128.103 28.8223 -128.047 29.154H-132.204V28.0509H-128.103ZM-128.047 25.8428C-128.103 26.2294 -128.103 26.5602 -128.103 26.9468H-132.204V25.8428H-128.047ZM-127.774 23.5797C-127.829 23.9664 -127.883 24.2971 -127.938 24.6838H-132.204V23.5797H-127.774ZM-127.063 21.3716C-127.229 21.7007 -127.34 22.0552 -127.391 22.4207H-132.203V21.3716H-127.063ZM-126.079 19.1086C-126.287 19.435 -126.453 19.7873 -126.571 20.1567H-132.204V19.1086H-126.079ZM-124.711 16.8455C-124.93 17.1772 -125.148 17.5629 -125.367 17.8946H-132.203V16.8455H-124.711ZM-122.743 14.5825C-123.071 14.9142 -123.399 15.2999 -123.727 15.6306H-132.204V14.5825H-122.743ZM-119.953 12.3185C-120.445 12.6502 -120.991 13.0359 -121.429 13.3675H-132.204V12.3185H-119.953ZM-115.139 10.0554C-116.069 10.3321 -116.999 10.7178 -117.929 11.1045H-132.204V10.0554H-115.139ZM-102.451 11.1045C-103.38 10.7178 -104.31 10.3321 -105.239 10.0554H-88.2847V11.1045H-102.451ZM-98.95 13.3675C-99.3876 13.0359 -99.8796 12.6502 -100.427 12.3185H-88.2847V13.3675H-98.95ZM-96.5987 15.6306C-96.9264 15.2989 -97.2551 14.9132 -97.5828 14.5825H-88.2847V15.6306H-96.5987ZM-94.9573 17.8946C-95.1761 17.5629 -95.3949 17.1772 -95.6682 16.8455H-88.2847V17.8946H-94.9573ZM-93.7545 20.1567C-93.8733 19.7875 -94.0386 19.4352 -94.2465 19.1086H-88.2847V20.1567H-93.7545ZM-92.9338 22.4207C-92.9852 22.0551 -93.0963 21.7006 -93.2624 21.3716H-88.2857V22.4207H-92.9338ZM-92.3873 24.6838C-92.4334 24.3109 -92.5066 23.9419 -92.606 23.5797H-88.2847V24.6838H-92.3873ZM-92.2229 26.9468C-92.2229 26.5602 -92.2229 26.2294 -92.2783 25.8428H-88.2857V26.9468H-92.2229ZM-92.2774 29.154C-92.222 28.8223 -92.222 28.4915 -92.222 28.0509H-88.2847V29.154H-92.2774ZM-92.6605 31.418C-92.606 31.0863 -92.4962 30.7555 -92.4417 30.313H-88.2847V31.418H-92.6605ZM-93.3713 33.681C-93.1525 33.3493 -93.0427 33.0186 -92.9882 32.576H-88.2847V33.681H-93.3713ZM-94.3564 35.9431C-94.192 35.6115 -93.9732 35.2807 -93.8089 34.84H-88.2847V35.9431H-94.3564ZM-95.778 38.1512C-95.5048 37.8755 -95.286 37.5438 -95.0672 37.104H-88.2847V38.1512H-95.778ZM-97.7471 40.4152C-97.4185 40.1395 -97.0363 39.8078 -96.7076 39.3662H-88.2847V40.4152H-97.7471ZM-100.591 42.6783C-100.044 42.4025 -99.6064 42.0159 -99.1143 41.6292H-88.2847V42.6783H-100.591ZM-105.678 44.9404C-104.639 44.7205 -103.654 44.3329 -102.724 43.8932H-88.2847V44.9404H-105.678ZM-88.3401 7.79235C-88.3401 7.9582 -88.2857 8.23397 -88.2857 8.39981V8.84144H-132.204V8.39981V7.79235H-88.3401ZM-88.2857 46.1544V46.5969C-88.2857 46.8727 -88.3401 47.0395 -88.3401 47.2044H-132.204V46.1544H-88.2857ZM-89.2697 49.4684C-89.0509 49.2485 -88.8322 48.806 -88.6134 48.4193H-131.931C-131.767 48.806 -131.493 49.2485 -131.275 49.4684H-89.2697ZM-121.101 34.6202L-121.484 36.7174H-124.985L-123.345 29.8723H-119.625C-119.296 30.9754 -118.86 31.7487 -118.477 32.1894C-118.039 32.632 -117.493 32.8518 -116.835 32.8518C-116.288 32.8518 -115.797 32.6869 -115.414 32.3562C-115.031 32.0254 -114.757 31.6378 -114.593 31.0863C-114.484 30.5907 -114.539 30.2031 -114.812 29.8723C-115.031 29.5406 -115.468 29.3208 -116.07 29.2099L-117.711 28.8232C-119.462 28.4385 -120.666 27.7201 -121.321 26.727C-122.032 25.6779 -122.142 24.2981 -121.704 22.5866C-121.267 20.7651 -120.391 19.2195 -119.079 18.0055C-117.766 16.7915 -116.289 16.184 -114.758 16.184C-113.938 16.184 -113.281 16.3489 -112.735 16.7356C-112.188 17.1223 -111.805 17.6738 -111.532 18.3921L-111.149 16.6257H-107.648L-109.18 22.9732H-112.625C-112.844 21.9791 -113.172 21.2617 -113.5 20.7651C-113.883 20.3235 -114.375 20.0477 -114.922 20.0477C-115.414 20.0477 -115.851 20.2136 -116.289 20.5443C-116.672 20.876 -116.945 21.3176 -117.055 21.8142C-117.164 22.3108 -117.11 22.6974 -116.836 23.0291C-116.563 23.3049 -116.016 23.5807 -115.305 23.8015L-113.883 24.0782C-112.133 24.5748 -110.984 25.2922 -110.328 26.3413C-109.672 27.3903 -109.563 28.6602 -109.945 30.3698C-110.437 32.413 -111.312 34.0677 -112.625 35.2826C-113.938 36.4985 -115.415 37.1059 -117.11 37.1059C-118.04 37.1059 -118.86 36.8842 -119.516 36.4985C-120.172 36.054 -120.664 35.4475 -121.101 34.6202ZM-110.217 36.7164H-96.6532L-94.7939 28.7683H-97.4739L-99.3885 32.6869H-103.49L-100.591 20.6533H-99.0054L-98.0213 16.6238H-105.405L-106.389 20.6533H-104.748L-107.647 32.6869H-109.289L-110.217 36.7164Z" fill="white"/>
<path fill-rule="evenodd" clip-rule="evenodd" d="M-134.556 1.11491H27.5564C30.5096 1.11491 32.9707 3.21212 32.9707 5.80687V49.1935C32.9707 51.7863 30.5096 53.8854 27.5564 53.8854H-134.556C-137.51 53.8854 -139.971 51.7863 -139.971 49.1935V5.80592C-139.971 3.21212 -137.51 1.11491 -134.556 1.11491ZM27.6118 -0.0450439H-134.611C-138.603 0.23073 -141.065 2.32794 -141.339 5.75095V49.2484C-141.065 52.6155 -138.549 54.7677 -134.611 55.0435H27.6118C31.549 54.7677 34.0656 52.6155 34.3389 49.2484V5.75095C34.0656 2.32889 31.6044 0.23073 27.6118 -0.0450439Z" fill="white"/>
</g>
<defs>
<clipPath id="clip0_1189_5771">
<rect width="181" height="55" fill="white" transform="translate(-144)"/>
</clipPath>
</defs>
</svg>
