<svg width="183" height="63" viewBox="0 0 183 63" fill="none" xmlns="http://www.w3.org/2000/svg">
<g clip-path="url(#clip0_1189_5790)">
<path d="M20.9799 52.9505C20.0469 52.8957 19.7947 52.8741 19.1887 52.7986C17.1331 52.5414 15.1279 51.9786 13.2404 51.1291C12.7147 50.8926 12.3603 50.7143 12.3806 50.6964C12.3898 50.6883 12.574 50.5413 12.7902 50.3699C15.6696 48.0856 18.7292 45.5294 21.3153 43.2479C31.4241 34.329 37.8627 26.6861 40.0591 20.9986C40.1294 20.8165 40.1839 20.6646 40.1802 20.661C40.1766 20.6573 40.0922 20.7764 39.9928 20.9254C39.4527 21.735 38.7385 22.5872 37.9056 23.4156C37.4301 23.8888 37.1382 24.1519 36.2771 24.8841C32.7324 27.8977 27.9278 31.3557 22.5988 34.7283C19.8101 36.4932 16.9804 38.1932 14.112 39.827C12.6833 40.6402 9.7051 42.2986 9.09255 42.622C8.98217 42.6805 8.35274 43.015 7.69412 43.3656C5.28244 44.6491 5.18256 44.7006 5.15542 44.6725C5.09932 44.6142 4.70022 44.0493 4.45598 43.6824C3.90454 42.8542 3.36109 41.8936 2.98069 41.075C2.91118 40.9251 2.84102 40.7756 2.7702 40.6264C2.66757 40.4123 2.45001 39.8853 2.31021 39.5125C0.28623 34.1169 0.602085 28.1435 3.18229 23.0162C4.4838 20.4303 6.29911 18.1629 8.56597 16.2924C8.91147 16.0072 9.62848 15.4677 10.0027 15.2107C12.8445 13.2623 16.1303 12.0496 19.5623 11.6824C20.8225 11.5475 22.2996 11.5298 23.5569 11.6341C27.7817 11.984 31.7971 13.6135 35.0616 16.3031C35.563 16.7158 35.9551 17.0734 36.5086 17.6236C37.1882 18.2989 37.6408 18.801 38.1629 19.4582C38.2358 19.5498 38.302 19.6248 38.3097 19.6248C38.3462 19.6248 38.743 19.1033 38.9841 18.7386C39.9351 17.3 40.2452 15.8573 39.8801 14.5719C39.4076 12.9097 37.8536 11.5799 35.6454 10.9481C33.7703 10.4116 31.4296 10.3172 29.2316 10.6896C29.1228 10.7082 29.0407 10.717 29.0491 10.7098C29.0708 10.691 29.5953 10.5526 29.9841 10.463C32.498 9.88478 35.1297 9.91041 37.0534 10.532C37.8933 10.8034 38.5517 11.1198 39.2361 11.5806C40.1985 12.2287 41.0256 13.1233 41.6364 14.1771C42.1636 15.0871 42.443 15.9282 42.5723 16.9959C42.6143 17.3422 42.6302 18.2928 42.601 18.696C42.4831 20.3176 42.0699 21.952 41.2744 23.9435L41.0824 24.424L41.1789 24.6676C42.6042 28.2732 42.9878 32.1708 42.2925 35.9887C41.1467 42.2816 37.0627 47.7513 31.3253 50.6781C28.7882 51.9722 26.1772 52.6975 23.2695 52.9158C22.9042 52.9431 21.2745 52.968 20.9799 52.9505ZM23.2885 48.6283C24.639 48.5063 25.8698 48.2484 27.1392 47.8214C31.9518 46.2032 35.8294 42.3496 37.4552 37.5697C37.8976 36.2692 38.1585 35.0133 38.2828 33.5883C38.3255 33.0976 38.3319 31.5161 38.2929 31.0643C38.263 30.7158 38.1948 30.0976 38.1765 30.0085L38.1633 29.9432L38.0215 30.1704C34.7895 35.3463 29.6211 41.6829 23.2725 48.2521C22.9544 48.5811 22.8898 48.6568 22.927 48.6566C22.9521 48.6566 23.1147 48.6439 23.2885 48.6283ZM6.73994 37.8861C7.71989 37.4629 10.8084 36.0583 12.4933 35.2701C15.2883 33.962 18.661 32.2792 21.4303 30.8115C24.9747 28.9327 28.2628 27.0199 31.3443 25.0442C32.7144 24.1657 35.0798 22.5305 35.0666 22.4708C35.0581 22.4339 34.6073 21.8631 34.3612 21.5774C33.1334 20.1539 31.6271 18.9132 30.0031 17.988C29.6382 17.7801 28.8972 17.4061 28.526 17.2426C25.6513 15.9763 22.4955 15.5557 19.3324 16.0169C18.6355 16.1185 17.7579 16.3133 17.0528 16.5226C13.9713 17.4376 11.1995 19.2638 9.10577 21.7583C7.25215 23.9671 6.01427 26.6273 5.5292 29.445C5.11642 31.8449 5.23911 34.3382 5.88405 36.6472C6.04187 37.2114 6.32192 38.046 6.35384 38.046C6.36274 38.046 6.53629 37.9741 6.73994 37.8861ZM158.445 32.6835V21.8536H163.369V43.5132H158.445V32.6835ZM167.756 32.6835V21.8536H172.679V39.246H182.009V43.5132H167.756L167.756 32.6835Z" fill="#636363"/>
<path d="M20.9226 52.9413C20.2895 52.91 19.6085 52.8499 19.0589 52.7766L18.824 52.7453L20.199 51.3711C20.9552 50.6155 21.8626 49.7016 22.2154 49.3404C22.5685 48.9791 22.8745 48.6775 22.8957 48.6703C22.9167 48.6628 23.1021 48.643 23.3076 48.626C25.4962 48.4462 27.7341 47.7763 29.6872 46.7157C31.5357 45.7106 33.1775 44.3683 34.5265 42.759C35.7726 41.2722 36.7442 39.5778 37.3963 37.7542C37.7092 36.8759 37.976 35.8363 38.1256 34.9141C38.3719 33.3942 38.4025 31.7277 38.2112 30.2281L38.1726 29.9271L38.4675 29.4373C39.5181 27.6927 40.4356 25.9398 41.0012 24.5987L41.0758 24.4213L41.11 24.5014C41.1987 24.7091 41.4484 25.3874 41.5674 25.7436C42.1647 27.5324 42.5002 29.3251 42.6008 31.2692C42.6263 31.7608 42.6144 33.2212 42.5814 33.6532C42.4366 35.5472 42.1145 37.1623 41.5467 38.8442C40.3471 42.3969 38.2237 45.5261 35.3427 47.9868C32.4576 50.4474 28.948 52.0723 25.1972 52.6841C24.495 52.797 23.7876 52.8765 23.0777 52.9222C22.6759 52.9492 21.3249 52.961 20.9226 52.9413ZM125.063 43.6815C123.904 43.6058 122.791 43.3781 121.754 43.0048C118.073 41.6791 115.442 38.6479 114.691 34.8694C114.472 33.7673 114.42 32.4994 114.548 31.3769C114.936 27.9694 116.909 25.0016 119.931 23.2802C121.267 22.5194 122.779 22.0216 124.354 21.8237C124.992 21.7436 125.244 21.7289 125.973 21.7291C126.722 21.7291 127.029 21.7502 127.664 21.8441C129.849 22.1666 131.999 23.1174 133.645 24.4903C133.931 24.7284 134.405 25.1679 134.398 25.1881C134.395 25.1971 133.851 25.8818 133.188 26.7097L131.983 28.215L131.684 27.9148C130.951 27.1782 130.138 26.5961 129.241 26.165C127.725 25.4371 126.176 25.233 124.565 25.5491C121.646 26.1221 119.415 28.3447 118.868 31.2245C118.776 31.708 118.76 31.9093 118.76 32.577C118.76 33.3571 118.798 33.7045 118.952 34.3421C119.621 37.1133 121.897 39.2107 124.76 39.6928C125.265 39.7779 125.619 39.8021 126.193 39.7908C126.728 39.7801 126.946 39.759 127.41 39.672C128.971 39.3787 130.502 38.603 131.76 37.4677L131.981 37.2675L133.193 38.6093C133.859 39.3475 134.409 39.9622 134.414 39.9754C134.424 40.0026 134.034 40.3865 133.732 40.6457C131.655 42.4281 129.102 43.5012 126.509 43.6822C126.194 43.7044 125.406 43.704 125.063 43.6815ZM63.2223 43.6516C62.9897 43.6368 62.3334 43.5668 62.0729 43.5291C59.8608 43.208 57.6163 42.3048 55.8277 41.0156C55.5597 40.8224 55.0881 40.4498 54.9187 40.2974L54.8142 40.2035L55.6441 38.5381C56.1002 37.6219 56.4927 36.8355 56.5157 36.7901L56.5579 36.7076L56.7693 36.8868C58.2941 38.1812 60.2417 39.191 62.0634 39.632C62.7512 39.7985 63.2807 39.8708 63.9218 39.886C66.3027 39.9423 67.7556 39.1005 67.8238 37.6251C67.8724 36.5788 67.3084 35.8066 66.0577 35.2071C65.4242 34.9032 64.7613 34.6782 63.1074 34.2054C61.4289 33.7258 60.5696 33.4357 59.7869 33.0847C57.5712 32.0903 56.4425 30.7165 56.1693 28.6812C56.1219 28.3268 56.1214 27.4054 56.1688 27.0716C56.3919 25.4983 57.1221 24.2676 58.3947 23.3192C59.6877 22.3557 61.4027 21.8035 63.4905 21.6785C63.8965 21.654 65.0436 21.6663 65.3873 21.6985C66.8787 21.8382 68.1508 22.1203 69.432 22.5958C70.3522 22.9371 71.3192 23.4068 71.9924 23.8392L72.1605 23.9472L72.1345 23.9998C72.1203 24.0286 71.7429 24.8343 71.2959 25.7904C70.8489 26.7464 70.4786 27.5288 70.4726 27.5288C70.4667 27.5288 70.3244 27.4503 70.1566 27.3544C68.1077 26.1856 65.6659 25.4332 63.9216 25.4332C62.7108 25.4332 61.7375 25.7271 61.2061 26.2527C60.8649 26.5902 60.7039 26.9843 60.7035 27.4834C60.7023 28.403 61.2148 29.0951 62.3163 29.6616C62.9806 30.0033 63.5831 30.2158 65.5309 30.7957C67.2833 31.3172 68.2028 31.654 69.0464 32.0824C69.8434 32.4872 70.417 32.8965 70.9431 33.4362C71.7041 34.2174 72.1365 35.1173 72.3174 36.2969C72.3539 36.5357 72.3589 36.6473 72.3591 37.2346C72.3591 37.9528 72.3404 38.1553 72.2268 38.6538C71.838 40.3632 70.7085 41.7408 68.9793 42.615C67.9292 43.1459 66.7378 43.4708 65.3008 43.6182C65.0176 43.6473 63.5293 43.6711 63.2223 43.6516ZM75.7418 32.6722V21.8327L80.172 21.8332C84.5924 21.8337 85.3771 21.8427 86.0102 21.8996C88.0194 22.0811 89.6349 22.6584 90.8669 23.6358C91.1476 23.8585 91.6308 24.3433 91.8422 24.6143C92.4249 25.3613 92.8108 26.167 93.0509 27.1383C93.4477 28.7441 93.3743 30.7061 92.8598 32.2436C92.5045 33.3047 92.006 34.1199 91.2504 34.8744C90.6972 35.4273 90.1403 35.8214 89.4107 36.1767C88.4251 36.6573 87.3076 36.9523 85.9817 37.0825C85.6647 37.1135 83.9885 37.1636 83.9361 37.1437C83.905 37.1319 83.903 37.0151 83.903 35.3143V33.4974L84.4825 33.4854C85.0763 33.4729 85.3249 33.4564 85.6944 33.4047C86.8629 33.2414 87.7578 32.8382 88.3713 32.1992C88.8874 31.6613 89.182 31.0075 89.3086 30.1197C89.3482 29.8394 89.3428 28.9686 89.2994 28.691C89.1649 27.8318 88.8748 27.2295 88.3396 26.6997C87.6166 25.984 86.6223 25.6037 85.1789 25.4908C85.0291 25.479 83.9452 25.4713 82.4252 25.4713H79.9182V43.5117H75.7418V32.6722ZM91.8151 43.5053C91.8151 43.5019 93.9643 38.6263 96.591 32.6706L101.367 21.8423L103.527 21.8377L105.687 21.8327L105.742 21.9518C105.779 22.0337 113.932 40.7598 115.093 43.4307L115.129 43.5117L112.884 43.5069L110.64 43.5021L109.307 40.3255L107.975 37.1491H105.401C103.74 37.1491 102.83 37.1423 102.834 37.1305C102.837 37.1201 103.185 36.2974 103.607 35.3021L104.373 33.4924L105.404 33.4918C106.078 33.4918 106.433 33.485 106.429 33.4725C106.397 33.3779 103.432 26.2915 103.424 26.2911C103.412 26.2904 99.9263 34.5038 98.7153 37.387C98.1464 38.7414 97.5768 40.0955 97.0065 41.4494L96.1379 43.5117H93.9766C92.7878 43.5117 91.8151 43.5087 91.8151 43.5053ZM137.18 32.6722V21.8327L145.164 21.8375L153.148 21.8423V25.4618L147.252 25.4665L141.357 25.4715V30.8242H151.932V34.4435H141.357V39.8919H153.522V43.5112H137.18V32.6722ZM2.37562 39.6704C2.31632 39.5291 2.11997 38.9753 2.00525 38.6252C0.865439 35.1488 0.688013 31.3386 1.49783 27.734C2.05908 25.2364 3.05659 22.9219 4.49698 20.7755C7.53375 16.2508 12.2513 13.0841 17.5795 11.9945C18.9068 11.7228 20.0852 11.5954 21.4877 11.5713C25.1628 11.5085 28.7453 12.4049 31.9572 14.1905C34.2973 15.4949 36.3632 17.2345 38.0426 19.3147L38.3083 19.6446L38.1313 19.848C37.8775 20.1394 37.1781 20.8306 36.846 21.1182C36.3933 21.51 35.8182 21.9591 35.1915 22.4101L35.0923 22.4815L34.9201 22.257C34.1828 21.296 33.2498 20.3374 32.2833 19.5476C29.7335 17.4638 26.6746 16.2127 23.3651 15.8995C22.394 15.8076 21.2503 15.8076 20.2615 15.8993C16.9861 16.2025 13.8905 17.4642 11.3642 19.5253C10.5251 20.2102 9.63481 21.0987 8.96342 21.9216C6.01308 25.538 4.76106 30.1798 5.48331 34.8245C5.6263 35.7436 5.86736 36.704 6.18823 37.6335C6.26759 37.8635 6.32962 38.0546 6.3262 38.058C6.31138 38.073 2.63104 39.6527 2.44882 39.7225C2.41005 39.7373 2.40093 39.7311 2.37562 39.6704Z" fill="white"/>
</g>
<defs>
<clipPath id="clip0_1189_5790">
<rect width="181.588" height="63" fill="white" transform="translate(0.705872)"/>
</clipPath>
</defs>
</svg>
