<svg width="181" height="36" viewBox="0 0 181 36" fill="none" xmlns="http://www.w3.org/2000/svg">
<path d="M51.9665 2.74905V8.02565H48.8422L48.3021 5.83041C47.7238 5.52167 46.0251 5.25303 44.4831 5.25303C40.9331 5.25303 39.5838 6.44788 39.5838 9.14432C39.5838 14.4991 52.7777 13.1118 52.7777 21.4718C52.7777 26.2111 49.3823 28.5607 44.0594 28.5607C42.1298 28.5607 40.2785 28.2921 39.122 27.7909L38.5437 28.3682H35.9595V23.0515H39.124L39.7023 25.2869C40.5898 25.6337 42.2864 25.8643 43.947 25.8643C47.6515 25.8643 48.9627 24.5551 48.9627 21.8587C48.9627 16.1952 35.7688 17.7368 35.7688 9.56934C35.7688 4.90821 39.0858 2.55859 44.3726 2.55859C45.8766 2.55859 47.6897 2.82724 48.8482 3.36853L49.4647 2.75306H51.9665V2.74905Z" fill="white"/>
<path d="M63.811 28.7507C62.1524 28.7507 60.3775 28.3277 59.1045 27.1709H58.8735V31.8621L59.1828 32.1708H62.3854V34.5585H52.392V32.1708H54.9381L55.2473 31.8621V11.6458L54.9381 11.3371H51.9684V8.94937H58.488C58.6426 9.17992 58.7189 9.64303 58.7189 10.1823C58.7189 10.5672 58.6808 11.1065 58.6025 11.4534H58.8715C60.2992 9.17992 62.1504 8.56445 64.4655 8.56445C68.6701 8.56445 72.2582 11.4153 72.2582 18.5042C72.2602 26.1304 68.3629 28.7507 63.811 28.7507ZM62.7307 26.0161C66.3188 26.0161 68.4412 24.8614 68.4412 18.5804C68.4412 13.3419 66.6662 11.4914 63.3873 11.4914C61.7669 11.4914 59.8373 12.147 58.8735 13.0331V25.2844C59.7209 25.7074 61.3794 26.0161 62.7307 26.0161Z" fill="white"/>
<path d="M90.0844 28.6745C88.1548 28.6745 86.8055 28.1352 85.7634 26.4392H85.4944C83.9122 27.9027 82.2155 28.7507 79.9004 28.7507C75.8504 28.7507 73.6498 26.7078 73.6498 23.3959C73.6498 19.6209 76.234 17.5399 82.4082 17.5399H85.0707V16.0384C85.0707 12.8026 83.9142 11.6459 79.9004 11.6459C78.0872 11.6459 76.1958 11.9145 74.8846 12.2613L74.8083 9.44862C76.0813 8.90933 78.1655 8.5625 80.2859 8.5625C85.3779 8.5625 88.6568 10.6435 88.6568 15.6133V25.3987C89.0805 25.8618 89.6989 26.0924 90.6627 26.0924C91.0482 26.0924 91.6667 26.0543 91.9357 25.9761V28.2495C91.3956 28.5222 90.6627 28.6745 90.0844 28.6745ZM85.0687 19.8535H82.4062C78.3161 19.8535 77.507 20.8559 77.507 23.1674C77.507 25.1321 78.1234 26.0944 81.2878 26.0944C82.599 26.0944 84.1049 25.8257 85.0687 25.4007V19.8535Z" fill="white"/>
<path d="M106.326 12.4938C105.246 11.9546 103.162 11.5696 101.62 11.5696C97.9152 11.5696 95.6021 13.1875 95.6021 18.7347C95.6021 23.8971 97.8008 25.7455 101.582 25.7455C103.395 25.7455 105.439 25.1681 106.519 24.5506L106.636 27.3634C105.401 28.1733 103.126 28.7507 101.351 28.7507C95.1001 28.7507 91.7831 25.0137 91.7831 18.7347C91.7831 12.1851 95.4475 8.56445 101.543 8.56445C103.202 8.56445 105.363 8.91128 106.559 9.41248L106.326 12.4938Z" fill="white"/>
<path d="M123.456 27.3634C121.873 28.3256 119.637 28.7507 117.783 28.7507C110.916 28.7507 107.366 24.9376 107.366 18.7347C107.366 12.2633 110.954 8.56445 116.318 8.56445C121.873 8.56445 124.419 11.6458 124.419 16.3851C124.419 16.9244 124.419 17.8867 124.381 18.7728H111.147C111.147 23.4721 113.346 25.7455 117.86 25.7455C120.137 25.7455 122.181 25.2062 123.337 24.5506L123.456 27.3634ZM111.304 16.345H120.795V15.6133C120.795 12.8387 119.598 11.2609 116.32 11.2609C113.155 11.2609 111.651 13.0331 111.304 16.345Z" fill="white"/>
<path d="M151.62 5.13971H148.996L148.649 5.44845V28.3692H144.906L131.905 7.02621H131.636V25.6707L131.945 25.9795H134.955V28.3672H125.387V25.9795H128.012L128.359 25.6707V5.44644L128.012 5.1377H125.042V2.75H133.22L145.103 22.2806H145.372V5.44644L145.063 5.1377H142.093V2.75H151.622V5.13971H151.62Z" fill="white"/>
<path d="M167.129 27.3634C165.547 28.3256 163.31 28.7507 161.457 28.7507C154.59 28.7507 151.04 24.9376 151.04 18.7347C151.04 12.2633 154.628 8.56445 159.991 8.56445C165.547 8.56445 168.093 11.6458 168.093 16.3851C168.093 16.9244 168.093 17.8867 168.055 18.7728H154.821C154.821 23.4721 157.02 25.7455 161.533 25.7455C163.81 25.7455 165.854 25.2062 167.011 24.5506L167.129 27.3634ZM154.978 16.345H164.469V15.6133C164.469 12.8387 163.272 11.2609 159.993 11.2609C156.829 11.2609 155.325 13.0331 154.978 16.345Z" fill="white"/>
<path d="M176.852 28.7511C173.573 28.7511 171.527 27.4801 171.527 23.7812V11.3375H168.402V8.94983H171.527V5.13672H175.153V8.94983H179.898V11.3375H175.153V23.4344C175.153 25.361 175.577 25.9384 177.584 25.9384C178.355 25.9384 179.514 25.784 180.014 25.6297L180.13 28.2098C179.283 28.5206 178.086 28.7511 176.852 28.7511Z" fill="white"/>
<path d="M14.8584 29.5892C22.6287 29.5892 28.9278 23.2999 28.9278 15.5417C28.9278 7.78344 22.6287 1.49414 14.8584 1.49414C7.08812 1.49414 0.789062 7.78344 0.789062 15.5417C0.789062 23.2999 7.08812 29.5892 14.8584 29.5892Z" fill="#7A7A7A"/>
<path d="M16.1073 9.58398H13.6095V15.5422H16.1073V9.58398Z" fill="black"/>
<path d="M21.8741 15.5411C20.5529 18.0652 17.9085 19.7893 14.8585 19.7893C11.8085 19.7893 9.16411 18.0652 7.84291 15.5411H5.10815C6.58998 19.4805 10.395 22.2832 14.8585 22.2832C19.3221 22.2832 23.127 19.4805 24.6089 15.5411H21.8741Z" fill="black"/>
</svg>
