<svg width="37" height="91" viewBox="0 0 37 91" fill="none" xmlns="http://www.w3.org/2000/svg">
<g clip-path="url(#clip0_1189_5960)">
<path fill-rule="evenodd" clip-rule="evenodd" d="M100.644 18.573L106.859 12.3577L95.0716 0.570312L90.3559 5.28509L97.4285 12.3577L91.2132 18.573H8.48535V69.582H96.7834L87.9999 78.3664L99.7873 90.1538L104.501 85.4391L97.4294 78.3674L106.213 69.5829H173.516V18.573H100.644ZM95.3251 52.1802L94.8575 52.6479V52.5793L95.3251 52.1802Z" fill="#4B4B4B"/>
<path fill-rule="evenodd" clip-rule="evenodd" d="M9.98596 20.0723H89.7136L87.9999 21.786L97.4295 31.2155L87.9999 40.646L97.4295 50.0755L87.9999 59.5051L96.5759 68.0801H9.98596V20.0723Z" fill="white"/>
<path fill-rule="evenodd" clip-rule="evenodd" d="M14.4349 51.3994C15.3617 51.9891 16.3308 52.4952 17.0472 52.7478C17.7299 53.0252 18.4597 53.1683 19.1966 53.1695C20.5028 53.1695 21.346 52.7478 22.1038 52.0323C22.9048 51.2736 23.241 50.3045 23.241 49.2096C23.241 47.3983 21.9348 45.417 19.1544 43.1004C18.7328 42.9737 18.5224 42.7211 18.4802 42.553C16.6688 41.2468 15.3626 39.8139 14.7729 38.55C14.0142 37.4542 13.6771 35.9799 13.6771 34.3789C13.6771 32.2304 14.4358 30.5027 15.8678 28.9017C17.174 27.4697 18.9863 26.7109 21.0502 26.7109C21.9348 26.7109 22.9048 26.7954 23.6203 27.048C24.5049 27.2161 25.3894 27.5955 26.2749 28.1016V31.9356C25.3903 31.3882 24.5903 31.0933 23.9152 30.7985C23.241 30.5881 22.5667 30.5036 21.7658 30.5036C20.5019 30.5036 19.4905 30.6304 18.7328 31.3882C18.0585 32.2304 17.6792 33.2004 17.6792 34.3798C17.6792 36.1076 19.1534 38.2138 22.0184 40.4468C22.2719 40.7839 22.5658 40.9107 22.6926 40.9942C24.2936 42.3004 25.5152 43.5643 26.1472 44.8282C26.9059 46.0499 27.243 47.6086 27.243 49.2106C27.243 51.4013 26.5265 53.2981 25.1368 54.6456C23.6203 56.1621 21.7658 56.964 19.4905 56.964C18.7318 56.964 17.9318 56.8372 17.0463 56.6269C16.1617 56.2898 15.2772 56.0363 14.434 55.4897V51.3994H14.4349ZM34.4903 46.5541C34.4903 49.2087 34.6171 50.9355 35.1223 51.9891C35.5439 53.0427 36.2603 53.4634 37.2717 53.4634C38.1562 53.4634 38.8727 53.0417 39.3365 51.9891C39.8004 50.9355 39.9262 49.2087 39.9262 46.5541C39.9262 44.0263 39.8004 42.2985 39.3365 41.3708C38.8727 40.4017 38.1571 39.812 37.2717 39.812C36.2603 39.812 35.5448 40.4017 35.1223 41.3708C34.6171 42.2985 34.4903 44.0263 34.4903 46.5541ZM30.9089 68.081V36.7368H34.6171V38.7171C35.1223 37.9584 35.6706 37.3265 36.2603 36.9471C36.9345 36.5255 37.7768 36.4832 38.5356 36.4832C40.3056 36.4832 41.485 37.2419 42.4541 38.7585C43.1283 40.613 43.6757 43.0986 43.6757 46.5532C43.6757 50.2181 43.1283 52.7469 42.4541 54.4737C41.485 56.117 40.3056 56.9602 38.5356 56.9602C37.7768 56.9602 36.9345 56.7912 36.2603 56.2851C35.6706 56.0316 35.1223 55.3592 34.6171 54.5573V68.0791H30.9089V68.081ZM56.0622 56.6241V54.5592C55.4725 55.4869 54.9251 56.0334 54.3767 56.287C53.6602 56.7931 52.9024 56.9621 52.0169 56.9621C50.4159 56.9621 49.1943 56.1189 48.3088 54.3489C47.4665 52.6633 47.0026 50.1355 47.0026 46.5541C47.0026 43.2676 47.4665 40.782 48.3088 38.9275C49.1943 37.2419 50.4159 36.4832 52.0169 36.4832C52.9015 36.4832 53.6602 36.5255 54.3767 36.9471C54.9241 37.3265 55.4725 37.9584 56.0622 38.7171V36.7368H59.6849V56.6241H56.0622ZM50.7117 46.5541C50.7117 49.2087 50.8798 50.9355 51.1746 51.9891C51.6385 53.1685 52.3963 53.6324 53.4076 53.6324C54.4189 53.6324 55.0086 53.1685 55.4716 51.9891C55.9777 50.9355 56.1035 49.2087 56.1035 46.5541C56.1035 44.0263 55.9767 42.2985 55.4716 41.3708C55.0077 40.4017 54.418 39.812 53.4076 39.812C52.3963 39.812 51.6376 40.4017 51.1746 41.3708C50.8798 42.2985 50.7117 44.0263 50.7117 46.5541ZM72.2414 56.1602C71.7352 56.4973 71.2723 56.7931 70.7662 56.8354C70.1765 56.9621 69.629 56.9621 69.2074 56.9621C67.1848 56.9621 65.7105 56.1602 64.8251 54.4756C63.8137 52.791 63.3931 50.22 63.3931 46.6809C63.3931 43.2685 63.8137 40.782 64.8251 39.0542C65.8364 37.3274 67.1848 36.4842 69.1229 36.4842C69.5445 36.4842 70.1765 36.4842 70.7662 36.5264C71.2739 36.7308 71.7668 36.9702 72.2414 37.2429V40.782C71.9043 40.4027 71.5672 40.1923 71.2723 39.9397C70.9294 39.7777 70.5557 39.6916 70.1765 39.6871C69.2074 39.6871 68.2806 40.4036 67.7745 41.5407C67.2693 42.7201 67.0158 44.5324 67.0158 46.8077C67.0158 48.9984 67.2693 50.7684 67.7745 51.8633C68.2806 52.7901 69.1229 53.2962 70.1765 53.2962C70.5558 53.2962 70.8084 53.2962 71.2723 53.254C71.5662 53.1704 71.9043 52.791 72.2414 52.6643V56.1602ZM77.8031 44.5315H83.4071V43.984C83.4071 42.2985 83.1959 41.245 82.8597 40.4449C82.3123 39.6862 81.7226 39.3491 80.7112 39.3491C79.8267 39.3491 79.1515 39.813 78.6886 40.7811C78.098 41.6243 77.8031 42.8882 77.8031 44.5315ZM86.6514 49.9252V50.22C86.6514 52.3694 86.2308 53.9282 85.1772 55.2766C84.0823 56.287 82.6916 56.9621 80.8371 56.9621C78.6877 56.9621 76.9608 56.1189 75.9495 54.4756C74.9382 52.791 74.3485 50.22 74.3485 46.5551C74.3485 43.0995 74.9382 40.6139 75.9495 38.9284C76.9608 37.2429 78.6877 36.4842 80.7103 36.4842C82.8588 36.4842 84.3753 37.2429 85.3866 38.7171C86.4401 40.2759 86.9453 42.7192 86.9453 46.1738V47.3119H77.8022V47.9016C77.8022 49.9242 78.097 51.3985 78.6867 52.4943C79.1506 53.2953 79.8248 53.8005 80.8361 53.8005C81.5526 53.8005 82.3104 53.6324 82.6897 52.7892C83.0268 52.1995 83.364 51.1459 83.364 49.9242L86.6514 49.9252Z" fill="#4B4B4B"/>
</g>
<defs>
<clipPath id="clip0_1189_5960">
<rect width="181" height="89.6422" fill="white" transform="translate(0.5 0.679688)"/>
</clipPath>
</defs>
</svg>
